<svg xmlns="http://www.w3.org/2000/svg" width="814" height="176" viewBox="0 0 814 176">
  <g fill="none" fill-rule="evenodd">
    <g fill="#333">
      <path d="M96.5761719 32.390625C95.2675716 32.89844 94.3691431 33.8359307 93.8808594 35.203125 93.3925757 36.5703193 93.1484375 38.7577975 93.1484375 41.765625L93.1484375 89.2851562C93.1484375 92.2929838 93.3925757 94.4804619 93.8808594 95.8476562 94.3691431 97.2148506 95.2675716 98.1523412 96.5761719 98.6601562 97.8847722 99.1679713 99.9843605 99.4804682 102.875 99.5976562L102.875 102C98.1874766 101.765624 91.5078559 101.648438 82.8359375 101.648438 72.0546336 101.648438 64.1445564 101.765624 59.1054687 102L59.1054687 99.5976562C61.9961082 99.4804682 64.0956966 99.1679713 65.4042969 98.6601562 66.7128972 98.1523412 67.6113257 97.2148506 68.0996094 95.8476562 68.5878931 94.4804619 68.8320312 92.2929838 68.8320312 89.2851562L68.8320312 36.609375 42.2890625 102.585938 40.3554687 102.585938 12.5234375 36.7265625 12.5234375 84.4804688C12.5234375 88.3086129 12.8749965 91.1796779 13.578125 93.09375 14.2812535 95.0078221 15.5410065 96.4335891 17.3574219 97.3710938 19.1738372 98.3085984 21.9960746 99.0507785 25.8242187 99.5976562L25.8242187 102C21.9179492 101.765624 17.0547166 101.648438 11.234375 101.648438 6.93747852 101.648438 3.61719922 101.765624 1.2734375 102L1.2734375 99.5976562C3.77345 99.0507785 5.60936914 98.318364 6.78125 97.4003906 7.95313086 96.4824173 8.74413857 95.0664158 9.15429687 93.1523438 9.56445518 91.2382717 9.76953125 88.3476756 9.76953125 84.4804688L9.76953125 41.765625C9.76953125 38.7577975 9.52539307 36.5703193 9.03710937 35.203125 8.54882568 33.8359307 7.65039717 32.89844 6.34179687 32.390625 5.03319658 31.88281 2.9336082 31.5703131.04296875 31.453125L.04296875 29.0507812C5.31643262 29.2851574 13.4413514 29.4023438 24.4179687 29.4023438 28.7929906 29.4023438 32.4648289 29.2851574 35.4335937 29.0507812L52.484375 69.8320312 68.8320312 29.4023438 82.8359375 29.4023438C91.5078559 29.4023438 98.1874766 29.2851574 102.875 29.0507812L102.875 31.453125C99.9843605 31.5703131 97.8847722 31.88281 96.5761719 32.390625zM178.960938 102C173.765599 101.765624 164.996155 101.648438 152.652344 101.648438 135.074131 101.648438 121.871138 101.765624 113.042969 102L113.042969 99.5976562C115.621107 99.4804682 117.486322 99.1679713 118.638672 98.6601562 119.791021 98.1523412 120.572264 97.2148506 120.982422 95.8476562 121.39258 94.4804619 121.597656 92.2929838 121.597656 89.2851562L121.597656 41.765625C121.597656 38.7577975 121.382815 36.5703193 120.953125 35.203125 120.523435 33.8359307 119.732428 32.89844 118.580078 32.390625 117.427729 31.88281 115.582044 31.5703131 113.042969 31.453125L113.042969 29.0507812C121.871138 29.2851574 135.074131 29.4023438 152.652344 29.4023438 163.863337 29.4023438 171.832008 29.2851574 176.558594 29.0507812 175.972653 35.1445617 175.679688 40.261698 175.679688 44.4023438 175.679688 47.6836102 175.816405 50.1640541 176.089844 51.84375L173.277344 51.84375C171.675773 44.6952768 169.136736 39.5683749 165.660156 36.4628906 162.183576 33.3574063 157.769558 31.8046875 152.417969 31.8046875L150.894531 31.8046875C149.371086 31.8046875 148.179692 31.9609359 147.320312 32.2734375 146.460933 32.5859391 145.816408 33.1914018 145.386719 34.0898438 144.957029 34.9882857 144.742188 36.3359285 144.742188 38.1328125L144.742188 64.0898438 147.496094 64.0898438C150.152357 64.0898438 152.427725 63.3964913 154.322266 62.0097656 156.216806 60.6230399 157.710932 58.9043071 158.804688 56.8535156 159.898443 54.8027241 160.660154 52.7226668 161.089844 50.6132812L163.84375 50.6132812C163.570311 53.5820461 163.433594 56.6484217 163.433594 59.8125L163.492188 65.2617188C163.492188 69.1679883 163.72656 74.050752 164.195312 79.9101562L161.441406 79.9101562C160.855466 76.0820121 159.36134 72.8886847 156.958984 70.3300781 154.556629 67.7714716 151.402363 66.4921875 147.496094 66.4921875L144.742188 66.4921875 144.742188 92.859375C144.742188 94.656259 144.957029 96.0136673 145.386719 96.9316406 145.816408 97.849614 146.460933 98.4648422 147.320312 98.7773438 148.179692 99.0898453 149.371086 99.2460938 150.894531 99.2460938L153.648438 99.2460938C159.234403 99.2460938 163.892559 97.4980644 167.623047 94.0019531 171.353534 90.5058419 174.039054 84.7734773 175.679688 76.8046875L178.492188 76.8046875C178.218749 78.9531357 178.082031 81.8242008 178.082031 85.4179688 178.082031 89.8320533 178.374997 95.3593418 178.960938 102zM263.435547 38.0742188C270.87699 44.0898738 274.597656 52.9179105 274.597656 64.5585938 274.597656 72.0976939 272.781268 78.6796594 269.148438 84.3046875 265.515607 89.9297156 260.251988 94.2851408 253.357422 97.3710938 246.462856 100.457047 238.250048 102 228.71875 102 226.531239 102 223.738298 101.941407 220.339844 101.824219 212.136678 101.707031 208.132812 101.648438 208.328125 101.648438 200.671837 101.648438 194.910176 101.765624 191.042969 102L191.042969 99.5976562C193.621107 99.4804682 195.486322 99.1679713 196.638672 98.6601562 197.791021 98.1523412 198.572264 97.2148506 198.982422 95.8476562 199.39258 94.4804619 199.597656 92.2929838 199.597656 89.2851562L199.597656 41.765625C199.597656 38.7187348 199.382815 36.5117256 198.953125 35.1445312 198.523435 33.7773369 197.742193 32.8496118 196.609375 32.3613281 195.476557 31.8730444 193.621107 31.5703131 191.042969 31.453125L191.042969 29.0507812C195.964868 29.3242201 200.496073 29.4609375 204.636719 29.4609375L208.09375 29.4023438 214.070312 29.2851562C221.492225 29.1289055 226.746078 29.0507812 229.832031 29.0507812 244.793044 29.0507812 255.994103 32.0585637 263.435547 38.0742188zM225.386719 31.9003906C224.488277 32.4667997 223.873049 33.4628835 223.541016 34.8886719 223.208983 36.3144603 223.042969 38.4726418 223.042969 41.3632812L223.042969 89.3515625C223.042969 92.2812646 223.208983 94.4492117 223.541016 95.8554688 223.873049 97.2617258 224.498042 98.248044 225.416016 98.8144531 226.333989 99.3808622 227.74999 99.6640625 229.664062 99.6640625 235.054714 99.6640625 239.302719 98.3554818 242.408203 95.7382812 245.513687 93.1210807 247.701166 89.2929939 248.970703 84.2539062 250.240241 79.2148186 250.875 72.7500395 250.875 64.859375 250.875 57.0858986 250.191413 50.7383059 248.824219 45.8164062 247.457024 40.8945066 245.220719 37.2031373 242.115234 34.7421875 239.00975 32.2812377 234.820339 31.0507812 229.546875 31.0507812 227.671866 31.0507812 226.285161 31.3339815 225.386719 31.9003906zM311.78125 32.390625C310.648432 32.89844 309.876955 33.8261651 309.466797 35.1738281 309.056639 36.5214911 308.851562 38.7187348 308.851562 41.765625L308.851562 89.2851562C308.851562 92.2929838 309.056639 94.4804619 309.466797 95.8476562 309.876955 97.2148506 310.648432 98.1523412 311.78125 98.6601562 312.914068 99.1679713 314.769518 99.4804682 317.347656 99.5976562L317.347656 102C312.972634 101.765624 306.507855 101.648438 297.953125 101.648438 288.421827 101.648438 281.488303 101.765624 277.152344 102L277.152344 99.5976562C279.730482 99.4804682 281.595697 99.1679713 282.748047 98.6601562 283.900396 98.1523412 284.681639 97.2148506 285.091797 95.8476562 285.501955 94.4804619 285.707031 92.2929838 285.707031 89.2851562L285.707031 41.765625C285.707031 38.7577975 285.49219 36.5703193 285.0625 35.203125 284.63281 33.8359307 283.841803 32.89844 282.689453 32.390625 281.537104 31.88281 279.691419 31.5703131 277.152344 31.453125L277.152344 29.0507812C281.488303 29.2851574 288.421827 29.4023438 297.953125 29.4023438 306.507855 29.4023438 312.972634 29.2851574 317.347656 29.0507812L317.347656 31.453125C314.769518 31.5703131 312.914068 31.88281 311.78125 32.390625zM402.324219 99.5976562L402.324219 102C398.222636 101.765624 392.343788 101.648438 384.6875 101.648438 374.999952 101.648438 367.871117 101.765624 363.300781 102L363.300781 99.5976562C365.761731 99.4804682 367.59765 99.0605505 368.808594 98.3378906 370.019537 97.6152308 370.625 96.4726641 370.625 94.9101562 370.625 93.4648365 370.117193 91.6679795 369.101562 89.5195312L363.183594 75.8671875 340.683594 75.8671875C338.02733 82.1172188 336.699219 87.0781066 336.699219 90.75 336.699219 93.9922037 337.666006 96.2480405 339.599609 97.5175781 341.533213 98.7871157 344.277326 99.4804682 347.832031 99.5976562L347.832031 102C341.855439 101.765624 336.621116 101.648438 332.128906 101.648438 328.378888 101.648438 325.292981 101.765624 322.871094 102L322.871094 99.5976562C324.746103 99.2851547 326.523429 98.0839948 328.203125 95.9941406 329.882821 93.9042864 331.796864 90.4179932 333.945312 85.5351562L358.496094 29.0507812C359.707037 29.207032 361.035149 29.2851562 362.480469 29.2851562 364.003914 29.2851562 365.332026 29.207032 366.464844 29.0507812L395.234375 91.921875C397.617199 96.9219 399.980457 99.4804682 402.324219 99.5976562zM351.933594 49.8515625L341.738281 73.4648438 362.1875 73.4648438 351.933594 49.8515625zM640.402344 99.5976562L640.402344 102C636.300761 101.765624 630.421913 101.648438 622.765625 101.648438 613.078077 101.648438 605.949242 101.765624 601.378906 102L601.378906 99.5976562C603.839856 99.4804682 605.675775 99.0605505 606.886719 98.3378906 608.097662 97.6152308 608.703125 96.4726641 608.703125 94.9101562 608.703125 93.4648365 608.195318 91.6679795 607.179688 89.5195312L601.261719 75.8671875 578.761719 75.8671875C576.105455 82.1172188 574.777344 87.0781066 574.777344 90.75 574.777344 93.9922037 575.744131 96.2480405 577.677734 97.5175781 579.611338 98.7871157 582.355451 99.4804682 585.910156 99.5976562L585.910156 102C579.933564 101.765624 574.699241 101.648438 570.207031 101.648438 566.457013 101.648438 563.371106 101.765624 560.949219 102L560.949219 99.5976562C562.824228 99.2851547 564.601554 98.0839948 566.28125 95.9941406 567.960946 93.9042864 569.874989 90.4179932 572.023438 85.5351562L596.574219 29.0507812C597.785162 29.207032 599.113274 29.2851562 600.558594 29.2851562 602.082039 29.2851562 603.410151 29.207032 604.542969 29.0507812L633.3125 91.921875C635.695324 96.9219 638.058582 99.4804682 640.402344 99.5976562zM590.011719 49.8515625L579.816406 73.4648438 600.265625 73.4648438 590.011719 49.8515625zM723.306641 102C720.591783 103.132818 717.164083 103.699219 713.023438 103.699219 707.867162 103.699219 703.873061 102.791025 701.041016 100.974609 698.20897 99.158194 696.402348 96.6679846 695.621094 93.5039062L692.28125 79.9101562C691.773435 76.863266 691.089848 74.548836 690.230469 72.9667969 689.371089 71.3847577 688.316413 70.3105497 687.066406 69.7441406 685.8164 69.1777315 684.195322 68.8945312 682.203125 68.8945312L680.152344 68.8945312 680.152344 89.2851562C680.152344 92.2929838 680.367185 94.4804619 680.796875 95.8476562 681.226565 97.2148506 682.007807 98.1523412 683.140625 98.6601562 684.273443 99.1679713 686.109362 99.4804682 688.648438 99.5976562L688.648438 102C683.492162 101.765624 676.011768 101.648438 666.207031 101.648438 658.238241 101.648438 652.320332 101.765624 648.453125 102L648.453125 99.5976562C651.031263 99.4804682 652.896479 99.1679713 654.048828 98.6601562 655.201178 98.1523412 655.98242 97.2148506 656.392578 95.8476562 656.802736 94.4804619 657.007812 92.2929838 657.007812 89.2851562L657.007812 41.765625C657.007812 38.7187348 656.792971 36.5117256 656.363281 35.1445312 655.933592 33.7773369 655.152349 32.8496118 654.019531 32.3613281 652.886713 31.8730444 651.031263 31.5703131 648.453125 31.453125L648.453125 29.0507812C652.320332 29.2851574 658.003869 29.4023438 665.503906 29.4023438 667.144539 29.4023438 672.007772 29.3437506 680.09375 29.2265625L686.011719 29.1679688C709.293085 29.1679688 720.933594 35.320251 720.933594 47.625 720.933594 52.7812758 718.638695 57.2148252 714.048828 60.9257812 709.458961 64.6367373 701.734429 66.9999949 690.875 68.015625L693.980469 68.4257812C700.66019 69.0898471 705.953105 70.3593656 709.859375 72.234375 713.765645 74.1093844 716.226557 77.1171668 717.242188 81.2578125L719.761719 91.8046875C720.230471 93.7578223 720.855465 95.1249961 721.636719 95.90625 722.417973 96.6875039 723.47265 97.078125 724.800781 97.078125 726.207038 97.078125 727.613274 96.5117244 729.019531 95.3789062L730.660156 96.9609375C728.472645 99.1875111 726.021498 100.867182 723.306641 102zM681.853516 31.9003906C681.130856 32.4667997 680.632814 33.4628835 680.359375 34.8886719 680.085936 36.3144603 679.949219 38.4726418 679.949219 41.3632812L679.949219 66.0898438 683.171875 66.0898438C688.406276 66.0898438 691.980459 64.556656 693.894531 61.4902344 695.808603 58.4238128 696.765625 54.1172152 696.765625 48.5703125 696.765625 42.7109082 695.886728 38.3261864 694.128906 35.4160156 692.371085 32.5058448 689.402365 31.0507812 685.222656 31.0507812 683.699211 31.0507812 682.576175 31.3339815 681.853516 31.9003906zM803.664062 46.8046875C803.664062 51.609399 803.781249 55.2812373 804.015625 57.8203125L801.261719 57.8203125C799.738274 51.4530932 798.019541 46.3750189 796.105469 42.5859375 794.191397 38.7968561 791.964856 36.0527429 789.425781 34.3535156 786.886706 32.6542884 783.878924 31.8046875 780.402344 31.8046875L779.289062 31.8046875 779.289062 88.0546875C779.289062 91.3750166 779.601559 93.8066329 780.226562 95.3496094 780.851566 96.8925858 781.984367 97.9570283 783.625 98.5429688 785.265633 99.1289092 787.863263 99.4804682 791.417969 99.5976562L791.417969 102C787.042947 101.765624 778.976621 101.648438 767.21875 101.648438 755.617129 101.648438 747.882832 101.765624 744.015625 102L744.015625 99.5976562C747.57033 99.4804682 750.167961 99.1289092 751.808594 98.5429688 753.449227 97.9570283 754.582028 96.8925858 755.207031 95.3496094 755.832034 93.8066329 756.144531 91.3750166 756.144531 88.0546875L756.144531 31.8046875 755.089844 31.8046875C751.574201 31.8046875 748.546888 32.6542884 746.007812 34.3535156 743.468737 36.0527429 741.242197 38.7968561 739.328125 42.5859375 737.414053 46.3750189 735.69532 51.4530932 734.171875 57.8203125L731.417969 57.8203125C731.652345 55.2812373 731.769531 51.609399 731.769531 46.8046875 731.769531 41.5702863 731.496096 35.6523768 730.949219 29.0507812 738.058629 29.2851574 750.148352 29.4023438 767.21875 29.4023438 784.718838 29.4023438 797.160119 29.2851574 804.542969 29.0507812 803.957028 35.496126 803.664062 41.4140355 803.664062 46.8046875zM562.895508 47.6464844C557.123995 52.9785423 548.525448 57.0800638 537.099609 59.9511719 540.791034 62.4707157 543.735341 66.1913816 545.932617 71.1132812 548.129894 76.0351809 549.228516 81.5722349 549.228516 87.7246094 549.228516 96.6894979 546.372099 104.55563 540.65918 111.323242 534.94626 118.090854 527.021535 123.320294 516.884766 127.011719 506.747996 130.703143 495.234439 132.548828 482.34375 132.548828 467.285081 132.548828 454.409233 130.747088 443.71582 127.143555 433.022407 123.540021 424.877958 118.369174 419.282227 111.630859 413.686495 104.892544 410.888672 96.9238741 410.888672 87.7246094 410.888672 79.4042553 413.159157 72.4023722 417.700195 66.71875 422.241234 61.0351278 427.41208 56.713882 433.212891 53.7548828 439.013701 50.7958836 444.462865 48.7304746 449.560547 47.5585938 442.93942 45.156238 437.651387 42.2412281 433.696289 38.8134766 429.741191 35.385725 427.763672 30.8594031 427.763672 25.234375 427.763672 19.6093469 429.770488 15.0097835 433.78418 11.4355469 437.797872 7.86131025 442.807587 5.28321104 448.813477 3.70117188 454.819366 2.11913271 460.957 1.328125 467.226562 1.328125 471.621116 1.328125 475.195299 1.51855278 477.949219 1.89941406 480.703139 2.28027534 483.369128 2.91015186 485.947266 3.7890625 489.63869 5.07813145 492.832018 7.02635415 495.527344 9.63378906 498.22267 12.241224 499.570312 15.6542758 499.570312 19.8730469 499.570312 22.5683729 498.837898 24.941396 497.373047 26.9921875 495.908196 29.042979 493.930677 30.6396427 491.44043 31.7822266 488.950183 32.9248104 486.210952 33.4960938 483.222656 33.4960938 478.652321 33.4960938 474.931655 32.4267685 472.060547 30.2880859 469.189439 28.1494034 467.753906 25.0293174 467.753906 20.9277344 467.753906 17.5292799 468.92577 14.4238422 471.269531 11.6113281 473.613293 8.79881406 476.689434 6.92383281 480.498047 5.98632812 477.802721 5.04882344 474.257834 4.58007812 469.863281 4.58007812 465.468728 4.58007812 461.499041 5.50292046 457.954102 7.34863281 454.409162 9.19434517 451.582042 11.9921687 449.472656 15.7421875 447.363271 19.4922063 446.308594 24.0917696 446.308594 29.5410156 446.308594 35.8105782 448.183575 41.4648186 451.933594 46.5039062 455.800801 45.3906194 458.906238 44.8339844 461.25 44.8339844 463.359386 44.8339844 464.941401 45.317378 465.996094 46.2841797 467.050787 47.2509814 467.578125 48.5253827 467.578125 50.1074219 467.578125 51.2793027 467.080083 52.2314417 466.083984 52.9638672 465.087886 53.6962927 463.886726 54.0625 462.480469 54.0625 459.433579 54.0625 455.976582 52.3632982 452.109375 48.9648438 446.835911 52.7734565 442.807631 56.9042746 440.024414 61.3574219 437.241197 65.8105691 435.849609 71.28903 435.849609 77.7929688 435.849609 89.043025 440.507766 97.2607163 449.824219 102.446289 459.140672 107.631862 472.910065 110.224609 491.132812 110.224609 499.335979 110.224609 507.363242 109.082043 515.214844 106.796875 523.066446 104.511707 529.54099 101.084007 534.638672 96.5136719 539.736354 91.9433365 542.285156 86.4355791 542.285156 79.9902344 542.285156 76.2402156 541.816411 72.7246258 540.878906 69.4433594 539.941402 66.162093 537.714861 63.2324348 534.199219 60.6542969 529.511695 61.6503956 525.468767 62.3828102 522.070312 62.8515625 516.738255 63.6718791 512.431657 64.4042937 509.150391 65.0488281 500.126908 66.6894613 492.919949 68.286125 487.529297 69.8388672 482.138645 71.3916093 478.06642 73.2665906 475.3125 75.4638672 472.55858 77.6611438 471.181641 80.3710776 471.181641 83.59375 471.181641 86.4062641 472.207021 88.9257701 474.257812 91.1523438 476.308604 93.3789174 478.974593 95.1074157 482.255859 96.3378906 485.537126 97.5683655 488.964826 98.1835938 492.539062 98.1835938 493.359379 98.1835938 494.999988 98.0371108 497.460938 97.7441406 494.062483 96.5136657 491.616218 94.6972776 490.12207 92.2949219 488.627922 89.8925661 487.880859 87.2265771 487.880859 84.296875 487.880859 80.0195099 489.50682 76.6943478 492.758789 74.3212891 496.010758 71.9482303 500.214818 70.7617188 505.371094 70.7617188 510.644558 70.7617188 514.746079 72.0068235 517.675781 74.4970703 520.605483 76.9873171 522.070312 80.3710724 522.070312 84.6484375 522.070312 90.3906537 519.594751 94.6386581 514.643555 97.3925781 509.692358 100.146498 502.763716 101.523438 493.857422 101.523438 488.056612 101.523438 482.915061 100.600595 478.432617 98.7548828 473.950173 96.9091705 470.449231 94.1552917 467.929688 90.4931641 465.410144 86.8310364 464.150391 82.3633076 464.150391 77.0898438 464.150391 66.1913518 468.471636 57.797881 477.114258 51.9091797 485.756879 46.0204784 498.222575 41.875012 514.511719 39.4726562 516.035164 39.2968741 518.583967 38.886722 522.158203 38.2421875 524.853529 37.7148411 527.519518 37.2753924 530.15625 36.9238281 537.890664 35.6347592 544.233374 34.2724681 549.18457 32.8369141 554.135767 31.40136 558.002916 29.5556753 560.786133 27.2998047 563.56935 25.043934 564.960938 22.1875173 564.960938 18.7304688 564.960938 15.7421726 563.979502 13.1054802 562.016602 10.8203125 560.053701 8.53514482 557.534195 6.76270161 554.458008 5.50292969 551.381821 4.24315776 548.203141 3.61328125 544.921875 3.61328125 543.574212 3.61328125 541.9629 3.73046758 540.087891 3.96484375 543.662127 5.2539127 546.416006 7.15819053 548.349609 9.67773438 550.283213 12.1972782 551.25 14.804674 551.25 17.5 551.25 21.7773651 549.682633 25.0732306 546.547852 27.3876953 543.41307 29.70216 539.267604 30.859375 534.111328 30.859375 528.837864 30.859375 524.67775 29.599622 521.630859 27.0800781 518.583969 24.5605343 517.060547 21.1914273 517.060547 16.9726562 517.060547 11.8163805 519.082011 7.70021069 523.125 4.62402344 527.167989 1.54783618 533.232381.009765625 541.318359.009765625 547.41214.009765625 552.729469 1.035146 557.270508 3.0859375 561.811546 5.136729 565.327136 8.12498037 567.817383 12.0507812 570.30763 15.9765821 571.552734 20.6640353 571.552734 26.1132812 571.552734 35.1367639 568.667021 42.3144265 562.895508 47.6464844z"/>
    </g>
    <g transform="translate(630 133)">
      <path fill="#A5D223" d="M130.3215,1.4611 C131.6577,0.195 133.1535,0.8383 133.1535,2.6796 L133.1535,38.7819 L150.4638,38.7819 L150.4638,2.4698 C150.4638,0.2315 153.8203,0.2315 153.8203,2.4698 L153.8203,40.4609 C153.8203,41.3528 153.0346,42.1379 152.1413,42.1379 L131.4753,42.1379 C130.5822,42.1379 129.7961,41.3528 129.7961,40.4609 L129.7983,6.7276 L120.227,16.0033 C118.6435,17.5843 116.2717,15.2104 117.853,13.6274 L130.2912,1.4908 L130.3215,1.4611 Z"/>
      <path fill="#64BEC8" d="M182.8059,3.7438 L163.0568,22.4886 L182.5666,39.1839 C184.267,40.6401 182.0842,43.1901 180.3842,41.736 L159.4604,23.8299 C158.6848,23.1646 158.6557,22.0401 159.3955,21.3371 L180.4948,1.3106 C182.1166,-0.2308 184.4289,2.2024 182.8059,3.7438 Z"/>
      <path fill="#FA7D28" d="M35.736,0.9987 L64.3718,0.9987 C65.0361,0.9987 65.6047,1.3848 65.8754,1.9441 L80.9746,38.7819 L92.9372,38.7819 L92.9372,2.6777 C92.9372,0.8077 94.479,0.1681 95.802,1.4908 L113.4423,19.1216 C115.0246,20.7046 112.6518,23.0784 111.0695,21.4965 L96.2934,6.7276 L96.2934,40.4609 C96.2934,41.3528 95.509,42.1379 94.6147,42.1379 L79.8471,42.1379 C79.1784,42.1379 78.6042,41.7479 78.3378,41.1816 L63.2448,4.3566 L35.736,4.3566 C33.4978,4.3566 33.4978,0.9987 35.736,0.9987 Z"/>
      <path fill="#F0147D" d="M2.3676,0.9987 L26.1989,0.9987 C27.092,0.9987 27.8764,1.7847 27.8764,2.6777 L27.8764,38.7819 L47.7695,38.7819 L53.1037,25.7582 C53.3266,25.0949 53.9589,24.613 54.6989,24.613 L63.7321,24.613 C65.9704,24.613 65.9704,27.9698 63.7321,27.9698 L55.8256,27.9698 L50.4487,41.0965 C50.1972,41.7072 49.5964,42.1379 48.8959,42.1379 L26.1989,42.1379 C25.3061,42.1379 24.52,41.3528 24.52,40.4609 L24.52,4.3566 L2.3676,4.3566 C0.1298,4.3566 0.1298,0.9987 2.3676,0.9987 Z"/>
    </g>
  </g>
</svg>
