<?xml version="1.0" encoding="UTF-8" standalone="no"?><!DOCTYPE svg PUBLIC "-//W3C//DTD SVG 1.1//EN" "http://www.w3.org/Graphics/SVG/1.1/DTD/svg11.dtd"><svg width="100%" height="100%" viewBox="0 0 1350 192" version="1.1" xmlns="http://www.w3.org/2000/svg" xmlns:xlink="http://www.w3.org/1999/xlink" xml:space="preserve" style="fill-rule:evenodd;clip-rule:evenodd;stroke-linejoin:round;stroke-miterlimit:1.41421;"><g><g><path d="M0,34.684l40.133,0l33.835,70.02l33.654,-70.02l40.133,0l0,126.18l-32.934,0l0,-74.88l-28.795,62.46l-24.296,0l-28.796,-62.46l0,74.88l-32.934,0l0,-126.18Zm162.973,0l103.122,0l0,28.8l-65.689,0l0,19.8l59.57,0l0,28.8l-59.57,0l0,19.98l67.489,0l0,28.8l-104.922,0l0,-126.18Zm210.735,7.83c10.258,5.22 18.207,12.6 23.846,22.14c5.639,9.54 8.458,20.55 8.458,33.03c0,12.48 -2.879,23.52 -8.638,33.12c-5.759,9.6 -13.858,17.01 -24.296,22.23c-10.438,5.22 -22.496,7.83 -36.174,7.83l-53.991,0l0,-126.18l55.251,0c13.437,0 25.285,2.61 35.544,7.83Zm-13.768,79.83c5.279,-6.12 7.919,-14.22 7.919,-24.3c0,-10.08 -2.82,-18.24 -8.459,-24.48c-5.639,-6.24 -12.958,-9.36 -21.956,-9.36l-17.097,0l0,67.32l18.897,0c8.518,0 15.417,-3.06 20.696,-9.18Zm61.06,-87.66l37.434,0l0,126.18l-37.434,0l0,-126.18Zm152.382,126.18l-7.378,-20.16l-50.932,0l-7.559,20.16l-38.513,0l53.811,-126.18l38.513,0l52.012,126.18l-39.954,0Zm-47.382,-47.96l30.595,0l-15.118,-41.22l-15.477,41.22Z" style="fill:#333;"/><path d="M751.622,159.864l-7.38,-20.16l-50.94,0l-7.56,20.16l-38.52,0l53.82,-126.18l38.52,0l52.02,126.18l-39.96,0Zm-47.88,-47.52l30.6,0l-15.12,-41.22l-15.48,41.22Zm172.46,47.52l-16.74,-34.02l-19.8,0l0,34.02l-37.44,0l0,-126.18l58.86,0c16.92,0 30.03,3.9 39.33,11.7c9.3,7.8 13.95,18.84 13.95,33.12c0,9.24 -1.83,17.25 -5.49,24.03c-3.66,6.78 -8.91,12.15 -15.75,16.11l25.56,41.22l-42.48,0Zm-35.98,-62.62l21.42,0c5.64,0 9.99,-1.5 13.05,-4.5c3.06,-3 4.59,-7.32 4.59,-12.96c0,-5.52 -1.53,-9.75 -4.59,-12.69c-3.06,-2.94 -7.41,-4.41 -13.05,-4.41l-21.42,0l0,34.56Zm85,-63.56l110.88,0l0,29.88l-36.72,0l0,96.3l-37.62,0l0,-96.3l-36.54,0l0,-29.88Z" style="fill:#333;"/><g><g transform="matrix(1.64457,0,0,1.64457,-473.357,-529.617)"><text x="628.848px" y="421.143px" style="font-family:'Montserrat-Black', 'Montserrat';font-weight:900;font-size:121.612px;fill:none;">&amp;</text><text x="628.848px" y="421.143px" style="font-family:'Montserrat-Black', 'Montserrat';font-weight:900;font-size:121.612px;fill:#333;">&amp;</text><path d="M671.207,327.381l0.281,0.002l0.28,0.004l0.28,0.005l0.279,0.007l0.278,0.008l0.278,0.01l0.277,0.011l0.277,0.013l0.276,0.014l0.275,0.016l0.275,0.017l0.275,0.019l0.273,0.02l0.274,0.022l0.272,0.023l0.272,0.025l0.272,0.027l0.27,0.028l0.271,0.03l0.269,0.031l0.269,0.032l0.269,0.035l0.267,0.036l0.267,0.037l0.267,0.039l0.266,0.041l0.265,0.042l0.265,0.044l0.264,0.046l0.264,0.047l0.262,0.048l0.262,0.051l0.262,0.052l0.26,0.053l0.261,0.055l0.259,0.057l0.259,0.059l0.258,0.06l0.258,0.061l0.256,0.064l0.256,0.065l0.256,0.066l0.254,0.069l0.255,0.07l0.253,0.071l0.252,0.073l0.252,0.075l0.251,0.077l0.251,0.078l0.249,0.08l0.249,0.082l0.248,0.083l0.247,0.085l0.247,0.087l0.245,0.088l0.245,0.09l0.244,0.092l0.243,0.093l0.243,0.095l0.242,0.097l0.24,0.099l0.24,0.1l0.239,0.101l0.236,0.103l0.234,0.103l0.232,0.105l0.232,0.106l0.231,0.108l0.23,0.109l0.228,0.111l0.227,0.112l0.226,0.114l0.225,0.115l0.225,0.117l0.223,0.118l0.221,0.12l0.221,0.121l0.219,0.123l0.218,0.124l0.218,0.126l0.215,0.127l0.215,0.129l0.214,0.13l0.212,0.132l0.211,0.133l0.209,0.135l0.209,0.137l0.207,0.138l0.206,0.139l0.205,0.141l0.203,0.143l0.202,0.144l0.201,0.146l0.199,0.147l0.199,0.149l0.197,0.151l0.195,0.151l0.193,0.154l0.193,0.155l0.191,0.156l0.19,0.158l0.188,0.16l0.187,0.161l0.185,0.163l0.184,0.164l0.183,0.166l0.181,0.167l0.179,0.168l0.178,0.171l0.176,0.172l0.175,0.173l0.173,0.175l0.172,0.176l0.17,0.178l0.168,0.178l0.166,0.181l0.166,0.182l0.164,0.184l0.161,0.184l0.16,0.186l0.159,0.188l0.157,0.189l0.154,0.19l0.154,0.192l0.152,0.193l0.15,0.195l0.149,0.196l0.148,0.2l0.147,0.202l0.144,0.202l0.143,0.205l0.141,0.206l0.139,0.206l0.136,0.208l0.135,0.21l0.132,0.211l0.13,0.212l0.129,0.213l0.126,0.214l0.123,0.215l0.122,0.217l0.119,0.218l0.117,0.219l0.115,0.221l0.113,0.221l0.11,0.223l0.107,0.223l0.106,0.225l0.104,0.226l0.101,0.227l0.098,0.227l0.096,0.228l0.094,0.231l0.092,0.231l0.088,0.231l0.087,0.233l0.084,0.233l0.082,0.234l0.079,0.235l0.077,0.237l0.075,0.236l0.071,0.237l0.07,0.239l0.067,0.239l0.064,0.24l0.062,0.24l0.06,0.241l0.057,0.242l0.055,0.242l0.052,0.242l0.049,0.244l0.047,0.244l0.045,0.245l0.042,0.244l0.04,0.246l0.037,0.246l0.035,0.246l0.032,0.247l0.03,0.246l0.027,0.247l0.025,0.248l0.023,0.248l0.02,0.248l0.018,0.249l0.015,0.249l0.013,0.249l0.011,0.249l0.008,0.249l0.006,0.25l0.003,0.25l0.001,0.242l0,0.171l-0.001,0.164l-0.002,0.164l-0.003,0.161l-0.004,0.163l-0.004,0.163l-0.006,0.163l-0.006,0.162l-0.007,0.162l-0.008,0.163l-0.008,0.161l-0.01,0.161l-0.01,0.162l-0.012,0.162l-0.012,0.161l-0.012,0.161l-0.014,0.16l-0.015,0.16l-0.015,0.161l-0.017,0.161l-0.017,0.16l-0.018,0.16l-0.019,0.159l-0.02,0.16l-0.021,0.16l-0.021,0.158l-0.023,0.159l-0.023,0.159l-0.024,0.157l-0.026,0.159l-0.026,0.159l-0.026,0.156l-0.028,0.159l-0.029,0.158l-0.03,0.156l-0.03,0.157l-0.032,0.156l-0.032,0.157l-0.034,0.157l-0.034,0.156l-0.035,0.155l-0.036,0.156l-0.037,0.155l-0.038,0.154l-0.039,0.155l-0.04,0.154l-0.04,0.154l-0.042,0.154l-0.042,0.153l-0.044,0.153l-0.044,0.154l-0.045,0.151l-0.046,0.152l-0.048,0.153l-0.048,0.152l-0.049,0.151l-0.05,0.151l-0.051,0.15l-0.052,0.151l-0.053,0.15l-0.053,0.148l-0.055,0.149l-0.056,0.15l-0.056,0.149l-0.058,0.147l-0.058,0.148l-0.06,0.147l-0.06,0.147l-0.061,0.147l-0.062,0.146l-0.063,0.145l-0.064,0.145l-0.065,0.145l-0.066,0.144l-0.067,0.145l-0.068,0.144l-0.068,0.141l-0.069,0.143l-0.071,0.143l-0.071,0.142l-0.073,0.141l-0.073,0.14l-0.074,0.141l-0.075,0.139l-0.076,0.14l-0.077,0.139l-0.077,0.138l-0.079,0.138l-0.079,0.137l-0.081,0.137l-0.081,0.137l-0.082,0.135l-0.083,0.135l-0.084,0.135l-0.085,0.133l-0.085,0.134l-0.087,0.133l-0.087,0.132l-0.089,0.133l-0.089,0.131l-0.09,0.131l-0.09,0.13l-0.092,0.13l-0.092,0.129l-0.093,0.128l-0.094,0.128l-0.096,0.128l-0.095,0.126l-0.096,0.126l-0.098,0.126l-0.098,0.125l-0.099,0.124l-0.1,0.124l-0.101,0.124l-0.1,0.121l-0.102,0.122l-0.023,0.027l18.509,13.259l-1.797,5.356l-0.088,0.258l-0.089,0.256l-0.089,0.256l-0.091,0.256l-0.092,0.255l-0.093,0.256l-0.094,0.254l-0.095,0.254l-0.096,0.253l-0.098,0.254l-0.098,0.252l-0.099,0.252l-0.101,0.252l-0.102,0.251l-0.102,0.251l-0.104,0.251l-0.105,0.25l-0.106,0.249l-0.107,0.249l-0.108,0.248l-0.109,0.248l-0.111,0.248l-0.111,0.247l-0.112,0.247l-0.114,0.246l-0.114,0.245l-0.116,0.245l-0.116,0.245l-0.118,0.244l-0.119,0.244l-0.12,0.244l-0.121,0.242l-0.122,0.242l-0.123,0.242l-0.124,0.242l-0.126,0.24l-0.126,0.24l-0.127,0.24l-0.128,0.239l-0.092,0.169l1.702,1.565l10.949,10.236l0.004,0.527l-24.04,23.189l-12.167,-11.632l-0.13,0.066l-0.199,0.1l-0.199,0.099l-0.199,0.098l-0.2,0.097l-0.201,0.096l-0.201,0.095l-0.201,0.094l-0.201,0.093l-0.202,0.092l-0.202,0.091l-0.202,0.091l-0.203,0.089l-0.203,0.088l-0.203,0.087l-0.204,0.087l-0.203,0.085l-0.205,0.084l-0.205,0.084l-0.205,0.082l-0.206,0.082l-0.205,0.08l-0.205,0.08l-0.207,0.078l-0.207,0.078l-0.206,0.076l-0.207,0.076l-0.208,0.075l-0.208,0.073l-0.207,0.073l-0.209,0.072l-0.209,0.07l-0.209,0.07l-0.209,0.068l-0.21,0.068l-0.209,0.067l-0.21,0.065l-0.211,0.065l-0.211,0.064l-0.21,0.062l-0.211,0.062l-0.212,0.061l-0.212,0.059l-0.212,0.059l-0.212,0.058l-0.212,0.056l-0.214,0.056l-0.213,0.055l-0.213,0.053l-0.213,0.053l-0.215,0.052l-0.214,0.05l-0.214,0.05l-0.215,0.049l-0.214,0.047l-0.216,0.047l-0.215,0.045l-0.216,0.045l-0.216,0.044l-0.215,0.042l-0.217,0.042l-0.217,0.04l-0.216,0.04l-0.217,0.038l-0.217,0.038l-0.218,0.037l-0.217,0.035l-0.218,0.035l-0.219,0.033l-0.218,0.033l-0.218,0.031l-0.219,0.031l-0.219,0.029l-0.218,0.029l-0.22,0.027l-0.22,0.027l-0.22,0.025l-0.22,0.025l-0.22,0.023l-0.22,0.022l-0.221,0.022l-0.22,0.02l-0.221,0.02l-0.221,0.018l-0.222,0.018l-0.221,0.016l-0.221,0.015l-0.222,0.015l-0.222,0.013l-0.222,0.013l-0.222,0.011l-0.223,0.011l-0.222,0.009l-0.223,0.008l-0.223,0.008l-0.224,0.006l-0.223,0.006l-0.223,0.004l-0.223,0.004l-0.224,0.002l-0.224,0.002l-0.227,0l-0.316,-0.001l-0.319,-0.003l-0.318,-0.004l-0.318,-0.007l-0.316,-0.008l-0.316,-0.01l-0.316,-0.012l-0.315,-0.014l-0.314,-0.016l-0.314,-0.018l-0.313,-0.02l-0.312,-0.021l-0.311,-0.024l-0.312,-0.025l-0.31,-0.027l-0.31,-0.03l-0.309,-0.031l-0.308,-0.033l-0.308,-0.035l-0.307,-0.037l-0.306,-0.038l-0.306,-0.041l-0.305,-0.043l-0.304,-0.045l-0.304,-0.046l-0.303,-0.049l-0.302,-0.051l-0.301,-0.052l-0.301,-0.055l-0.3,-0.056l-0.299,-0.059l-0.299,-0.06l-0.297,-0.062l-0.297,-0.065l-0.297,-0.066l-0.295,-0.069l-0.295,-0.07l-0.294,-0.073l-0.293,-0.074l-0.292,-0.076l-0.292,-0.079l-0.29,-0.08l-0.29,-0.083l-0.289,-0.084l-0.289,-0.087l-0.287,-0.088l-0.286,-0.091l-0.287,-0.092l-0.284,-0.095l-0.284,-0.096l-0.283,-0.099l-0.282,-0.1l-0.281,-0.103l-0.281,-0.105l-0.279,-0.106l-0.278,-0.109l-0.278,-0.111l-0.277,-0.113l-0.275,-0.114l-0.269,-0.114l-0.143,-0.062l-0.136,-0.06l-0.137,-0.06l-0.137,-0.061l-0.135,-0.061l-0.136,-0.061l-0.135,-0.062l-0.141,-0.066l-0.262,-0.123l-0.265,-0.126l-0.264,-0.129l-0.263,-0.131l-0.262,-0.132l-0.259,-0.134l-0.259,-0.136l-0.258,-0.137l-0.256,-0.139l-0.254,-0.141l-0.254,-0.143l-0.252,-0.144l-0.25,-0.147l-0.248,-0.147l-0.248,-0.15l-0.247,-0.152l-0.238,-0.149l-0.128,-0.081l-0.12,-0.077l-0.122,-0.078l-0.121,-0.079l-0.12,-0.08l-0.12,-0.078l-0.12,-0.081l-0.119,-0.08l-0.118,-0.08l-0.119,-0.082l-0.118,-0.082l-0.117,-0.082l-0.117,-0.082l-0.118,-0.084l-0.116,-0.083l-0.115,-0.083l-0.117,-0.085l-0.116,-0.085l-0.113,-0.085l-0.115,-0.085l-0.114,-0.086l-0.114,-0.087l-0.114,-0.087l-0.111,-0.087l-0.114,-0.088l-0.112,-0.089l-0.111,-0.088l-0.111,-0.089l-0.112,-0.09l-0.11,-0.09l-0.11,-0.09l-0.11,-0.091l-0.108,-0.091l-0.11,-0.093l-0.108,-0.091l-0.108,-0.093l-0.108,-0.094l-0.106,-0.093l-0.106,-0.093l-0.107,-0.095l-0.106,-0.095l-0.106,-0.096l-0.105,-0.095l-0.104,-0.096l-0.104,-0.097l-0.104,-0.097l-0.103,-0.097l-0.103,-0.098l-0.102,-0.098l-0.102,-0.098l-0.101,-0.1l-0.101,-0.099l-0.101,-0.1l-0.101,-0.101l-0.099,-0.1l-0.099,-0.102l-0.098,-0.101l-0.098,-0.101l-0.099,-0.104l-0.098,-0.103l-0.096,-0.103l-0.097,-0.103l-0.096,-0.105l-0.095,-0.104l-0.095,-0.105l-0.094,-0.105l-0.095,-0.106l-0.094,-0.107l-0.093,-0.106l-0.092,-0.106l-0.093,-0.108l-0.092,-0.108l-0.09,-0.107l-0.092,-0.11l-0.09,-0.109l-0.089,-0.108l-0.09,-0.11l-0.089,-0.111l-0.088,-0.109l-0.088,-0.111l-0.088,-0.113l-0.087,-0.111l-0.086,-0.111l-0.086,-0.113l-0.086,-0.113l-0.085,-0.113l-0.085,-0.114l-0.084,-0.114l-0.083,-0.114l-0.084,-0.115l-0.082,-0.115l-0.081,-0.115l-0.082,-0.116l-0.082,-0.117l-0.081,-0.117l-0.082,-0.12l-0.081,-0.119l-0.08,-0.119l-0.079,-0.121l-0.08,-0.12l-0.078,-0.121l-0.078,-0.12l-0.077,-0.122l-0.076,-0.121l-0.077,-0.123l-0.076,-0.123l-0.074,-0.121l-0.074,-0.124l-0.074,-0.123l-0.073,-0.124l-0.072,-0.124l-0.072,-0.124l-0.072,-0.126l-0.07,-0.124l-0.07,-0.125l-0.069,-0.126l-0.069,-0.127l-0.068,-0.125l-0.068,-0.127l-0.067,-0.127l-0.065,-0.127l-0.066,-0.128l-0.065,-0.128l-0.064,-0.127l-0.064,-0.129l-0.063,-0.129l-0.063,-0.129l-0.061,-0.129l-0.061,-0.13l-0.061,-0.131l-0.06,-0.129l-0.059,-0.131l-0.059,-0.131l-0.057,-0.13l-0.058,-0.133l-0.056,-0.131l-0.056,-0.131l-0.056,-0.134l-0.054,-0.132l-0.054,-0.132l-0.053,-0.133l-0.053,-0.132l-0.052,-0.135l-0.051,-0.134l-0.051,-0.133l-0.05,-0.135l-0.049,-0.134l-0.049,-0.135l-0.048,-0.135l-0.047,-0.135l-0.047,-0.136l-0.047,-0.136l-0.045,-0.136l-0.045,-0.136l-0.044,-0.136l-0.043,-0.137l-0.043,-0.137l-0.042,-0.136l-0.041,-0.139l-0.041,-0.138l-0.04,-0.137l-0.039,-0.138l-0.039,-0.137l-0.038,-0.139l-0.038,-0.139l-0.036,-0.139l-0.037,-0.139l-0.035,-0.139l-0.034,-0.139l-0.035,-0.14l-0.033,-0.139l-0.033,-0.141l-0.032,-0.141l-0.031,-0.138l-0.031,-0.141l-0.03,-0.142l-0.029,-0.14l-0.029,-0.142l-0.028,-0.14l-0.028,-0.141l-0.026,-0.143l-0.027,-0.142l-0.025,-0.141l-0.025,-0.142l-0.024,-0.143l-0.023,-0.141l-0.023,-0.143l-0.022,-0.144l-0.021,-0.141l-0.021,-0.143l-0.021,-0.144l-0.019,-0.143l-0.019,-0.144l-0.018,-0.143l-0.017,-0.143l-0.017,-0.144l-0.017,-0.144l-0.015,-0.144l-0.015,-0.145l-0.014,-0.144l-0.014,-0.144l-0.013,-0.144l-0.012,-0.145l-0.012,-0.145l-0.011,-0.145l-0.011,-0.146l-0.009,-0.144l-0.009,-0.145l-0.009,-0.146l-0.008,-0.145l-0.007,-0.146l-0.007,-0.146l-0.006,-0.146l-0.005,-0.145l-0.005,-0.147l-0.004,-0.145l-0.003,-0.147l-0.003,-0.147l-0.002,-0.145l-0.002,-0.147l0,-0.147l-0.001,-0.146l0.001,-0.149l0,-0.148l0.002,-0.15l0.002,-0.149l0.003,-0.147l0.004,-0.148l0.004,-0.149l0.005,-0.149l0.005,-0.148l0.006,-0.147l0.007,-0.147l0.008,-0.148l0.008,-0.148l0.009,-0.146l0.009,-0.148l0.01,-0.147l0.011,-0.146l0.012,-0.146l0.012,-0.146l0.013,-0.148l0.013,-0.145l0.014,-0.147l0.015,-0.146l0.016,-0.145l0.016,-0.146l0.017,-0.145l0.018,-0.145l0.018,-0.144l0.019,-0.145l0.02,-0.145l0.02,-0.144l0.021,-0.144l0.022,-0.145l0.022,-0.144l0.024,-0.143l0.024,-0.145l0.024,-0.143l0.025,-0.142l0.027,-0.144l0.026,-0.143l0.028,-0.142l0.028,-0.142l0.029,-0.143l0.029,-0.141l0.031,-0.142l0.031,-0.142l0.032,-0.141l0.032,-0.141l0.033,-0.141l0.034,-0.141l0.035,-0.142l0.036,-0.139l0.036,-0.139l0.037,-0.141l0.037,-0.139l0.039,-0.14l0.039,-0.139l0.039,-0.138l0.041,-0.14l0.041,-0.137l0.042,-0.138l0.043,-0.137l0.043,-0.138l0.045,-0.138l0.045,-0.138l0.046,-0.135l0.046,-0.136l0.048,-0.138l0.048,-0.136l0.048,-0.134l0.049,-0.136l0.051,-0.136l0.05,-0.133l0.052,-0.134l0.053,-0.136l0.053,-0.134l0.053,-0.132l0.055,-0.133l0.056,-0.134l0.056,-0.132l0.056,-0.132l0.058,-0.132l0.058,-0.131l0.059,-0.131l0.06,-0.131l0.061,-0.131l0.061,-0.13l0.062,-0.13l0.062,-0.129l0.064,-0.13l0.064,-0.128l0.065,-0.128l0.066,-0.129l0.066,-0.127l0.067,-0.127l0.067,-0.126l0.069,-0.126l0.069,-0.127l0.071,-0.126l0.07,-0.125l0.071,-0.124l0.072,-0.125l0.073,-0.123l0.073,-0.124l0.075,-0.124l0.075,-0.123l0.075,-0.122l0.076,-0.121l0.077,-0.121l0.078,-0.122l0.079,-0.121l0.078,-0.119l0.08,-0.12l0.08,-0.119l0.082,-0.119l0.081,-0.118l0.083,-0.118l0.083,-0.118l0.084,-0.117l0.084,-0.117l0.085,-0.115l0.086,-0.116l0.086,-0.115l0.086,-0.113l0.089,-0.115l0.089,-0.115l0.088,-0.112l0.092,-0.115l0.16,-0.2l0.165,-0.201l0.166,-0.2l0.168,-0.199l0.169,-0.198l0.171,-0.198l0.172,-0.196l0.174,-0.195l0.176,-0.195l0.177,-0.194l0.178,-0.192l0.181,-0.192l0.182,-0.191l0.183,-0.19l0.185,-0.189l0.186,-0.188l0.188,-0.188l0.19,-0.186l0.191,-0.186l0.192,-0.184l0.194,-0.184l0.196,-0.183l0.196,-0.182l0.199,-0.181l0.2,-0.18l0.201,-0.18l0.203,-0.178l0.205,-0.178l0.205,-0.177l0.207,-0.176l0.209,-0.175l0.21,-0.174l0.212,-0.173l0.213,-0.173l0.215,-0.172l0.215,-0.171l0.217,-0.17l0.219,-0.169l0.112,-0.086l-0.083,-0.17l-0.084,-0.173l-0.082,-0.173l-0.082,-0.172l-0.08,-0.172l-0.08,-0.174l-0.079,-0.173l-0.078,-0.171l-0.076,-0.173l-0.076,-0.173l-0.075,-0.172l-0.074,-0.172l-0.072,-0.173l-0.072,-0.172l-0.071,-0.173l-0.07,-0.171l-0.069,-0.173l-0.067,-0.173l-0.067,-0.172l-0.066,-0.172l-0.064,-0.172l-0.064,-0.172l-0.062,-0.173l-0.062,-0.173l-0.061,-0.172l-0.059,-0.173l-0.058,-0.172l-0.057,-0.172l-0.055,-0.17l-0.054,-0.168l-0.053,-0.167l-0.052,-0.17l-0.052,-0.169l-0.05,-0.168l-0.05,-0.17l-0.048,-0.17l-0.048,-0.17l-0.048,-0.171l-0.046,-0.17l-0.045,-0.17l-0.044,-0.172l-0.044,-0.171l-0.043,-0.171l-0.042,-0.172l-0.041,-0.171l-0.04,-0.172l-0.039,-0.172l-0.038,-0.172l-0.038,-0.173l-0.037,-0.174l-0.035,-0.172l-0.035,-0.173l-0.034,-0.174l-0.033,-0.174l-0.033,-0.174l-0.031,-0.172l-0.031,-0.175l-0.029,-0.175l-0.029,-0.174l-0.028,-0.175l-0.027,-0.174l-0.026,-0.175l-0.026,-0.176l-0.024,-0.175l-0.024,-0.175l-0.023,-0.177l-0.022,-0.175l-0.021,-0.176l-0.02,-0.177l-0.019,-0.176l-0.018,-0.176l-0.018,-0.176l-0.017,-0.177l-0.016,-0.177l-0.015,-0.177l-0.014,-0.178l-0.013,-0.176l-0.012,-0.178l-0.012,-0.178l-0.01,-0.176l-0.01,-0.178l-0.009,-0.179l-0.008,-0.178l-0.007,-0.177l-0.007,-0.178l-0.005,-0.179l-0.005,-0.178l-0.004,-0.179l-0.003,-0.178l-0.002,-0.178l-0.001,-0.179l-0.001,-0.18l0.001,-0.197l0.001,-0.197l0.003,-0.196l0.004,-0.197l0.005,-0.197l0.006,-0.196l0.007,-0.196l0.008,-0.195l0.009,-0.195l0.011,-0.196l0.012,-0.195l0.012,-0.194l0.014,-0.195l0.015,-0.194l0.016,-0.193l0.017,-0.193l0.019,-0.193l0.019,-0.193l0.021,-0.193l0.022,-0.192l0.023,-0.192l0.024,-0.192l0.025,-0.191l0.027,-0.19l0.028,-0.192l0.029,-0.19l0.03,-0.19l0.031,-0.19l0.033,-0.189l0.033,-0.189l0.035,-0.188l0.036,-0.189l0.038,-0.188l0.038,-0.187l0.04,-0.188l0.041,-0.186l0.042,-0.187l0.044,-0.187l0.044,-0.184l0.046,-0.186l0.048,-0.185l0.048,-0.185l0.05,-0.184l0.051,-0.184l0.052,-0.183l0.053,-0.182l0.055,-0.182l0.056,-0.183l0.057,-0.182l0.058,-0.18l0.06,-0.18l0.061,-0.181l0.063,-0.18l0.063,-0.179l0.064,-0.177l0.067,-0.179l0.067,-0.178l0.068,-0.176l0.07,-0.176l0.072,-0.178l0.072,-0.175l0.073,-0.174l0.075,-0.175l0.077,-0.174l0.077,-0.172l0.078,-0.172l0.08,-0.173l0.082,-0.171l0.082,-0.171l0.083,-0.169l0.085,-0.17l0.087,-0.169l0.087,-0.168l0.089,-0.167l0.089,-0.167l0.091,-0.165l0.093,-0.166l0.094,-0.165l0.094,-0.164l0.096,-0.163l0.097,-0.163l0.099,-0.161l0.099,-0.161l0.101,-0.16l0.102,-0.16l0.103,-0.159l0.105,-0.158l0.106,-0.158l0.106,-0.156l0.108,-0.155l0.109,-0.156l0.11,-0.154l0.112,-0.153l0.112,-0.152l0.113,-0.152l0.115,-0.151l0.116,-0.15l0.117,-0.149l0.119,-0.149l0.119,-0.147l0.12,-0.147l0.122,-0.146l0.122,-0.144l0.123,-0.144l0.125,-0.144l0.125,-0.142l0.127,-0.141l0.128,-0.141l0.129,-0.14l0.13,-0.139l0.13,-0.137l0.132,-0.137l0.133,-0.136l0.134,-0.136l0.135,-0.134l0.135,-0.133l0.138,-0.133l0.137,-0.132l0.139,-0.13l0.139,-0.13l0.141,-0.129l0.142,-0.128l0.142,-0.127l0.143,-0.126l0.145,-0.126l0.145,-0.124l0.146,-0.123l0.147,-0.123l0.148,-0.122l0.149,-0.12l0.149,-0.12l0.151,-0.118l0.15,-0.118l0.152,-0.116l0.153,-0.116l0.153,-0.115l0.154,-0.113l0.155,-0.113l0.156,-0.111l0.156,-0.111l0.157,-0.11l0.158,-0.108l0.159,-0.108l0.159,-0.106l0.16,-0.106l0.161,-0.105l0.162,-0.103l0.162,-0.102l0.163,-0.102l0.164,-0.101l0.164,-0.099l0.165,-0.098l0.165,-0.098l0.167,-0.096l0.167,-0.095l0.167,-0.094l0.169,-0.094l0.169,-0.092l0.17,-0.091l0.17,-0.09l0.171,-0.09l0.172,-0.088l0.172,-0.087l0.173,-0.086l0.172,-0.085l0.175,-0.084l0.175,-0.083l0.175,-0.082l0.176,-0.081l0.176,-0.08l0.177,-0.079l0.177,-0.077l0.179,-0.077l0.178,-0.076l0.18,-0.075l0.18,-0.074l0.18,-0.072l0.181,-0.072l0.181,-0.071l0.182,-0.07l0.183,-0.068l0.183,-0.068l0.184,-0.067l0.184,-0.066l0.185,-0.064l0.185,-0.064l0.186,-0.063l0.186,-0.061l0.187,-0.061l0.187,-0.06l0.188,-0.058l0.188,-0.058l0.189,-0.057l0.189,-0.056l0.189,-0.055l0.191,-0.053l0.191,-0.053l0.191,-0.052l0.192,-0.051l0.192,-0.05l0.192,-0.049l0.193,-0.048l0.194,-0.047l0.194,-0.047l0.195,-0.045l0.195,-0.044l0.195,-0.043l0.196,-0.043l0.196,-0.041l0.197,-0.041l0.198,-0.039l0.197,-0.039l0.198,-0.038l0.199,-0.036l0.2,-0.036l0.199,-0.035l0.2,-0.034l0.2,-0.033l0.201,-0.033l0.201,-0.031l0.202,-0.03l0.202,-0.03l0.203,-0.028l0.203,-0.028l0.204,-0.027l0.204,-0.026l0.204,-0.025l0.205,-0.024l0.205,-0.023l0.206,-0.023l0.206,-0.021l0.207,-0.021l0.207,-0.02l0.207,-0.019l0.209,-0.018l0.208,-0.017l0.209,-0.016l0.208,-0.015l0.21,-0.015l0.211,-0.014l0.21,-0.013l0.211,-0.012l0.211,-0.011l0.212,-0.01l0.213,-0.01l0.212,-0.009l0.213,-0.007l0.214,-0.007l0.214,-0.007l0.215,-0.005l0.215,-0.004l0.215,-0.004l0.216,-0.003l0.216,-0.002l0.217,-0.001l0.22,-0.001l0.278,0.001Zm-0.47,7.296l-0.19,0.001l-0.188,0.002l-0.188,0.003l-0.187,0.003l-0.187,0.004l-0.186,0.005l-0.185,0.005l-0.185,0.006l-0.184,0.007l-0.183,0.007l-0.183,0.008l-0.182,0.009l-0.182,0.01l-0.181,0.01l-0.18,0.011l-0.18,0.012l-0.179,0.013l-0.179,0.013l-0.177,0.014l-0.178,0.014l-0.176,0.016l-0.176,0.016l-0.176,0.016l-0.174,0.018l-0.175,0.018l-0.173,0.019l-0.173,0.019l-0.172,0.021l-0.172,0.021l-0.171,0.021l-0.17,0.023l-0.17,0.023l-0.169,0.024l-0.169,0.025l-0.167,0.025l-0.168,0.026l-0.166,0.027l-0.166,0.027l-0.166,0.028l-0.164,0.029l-0.165,0.03l-0.163,0.03l-0.163,0.031l-0.162,0.032l-0.162,0.032l-0.161,0.033l-0.16,0.034l-0.16,0.035l-0.159,0.035l-0.159,0.036l-0.158,0.036l-0.157,0.038l-0.157,0.038l-0.156,0.039l-0.155,0.039l-0.155,0.041l-0.154,0.041l-0.154,0.041l-0.153,0.043l-0.152,0.043l-0.152,0.044l-0.151,0.044l-0.15,0.045l-0.15,0.046l-0.149,0.047l-0.149,0.047l-0.148,0.049l-0.147,0.048l-0.146,0.05l-0.147,0.05l-0.145,0.051l-0.145,0.052l-0.144,0.052l-0.144,0.053l-0.143,0.054l-0.142,0.054l-0.142,0.056l-0.141,0.056l-0.14,0.056l-0.14,0.058l-0.139,0.058l-0.139,0.059l-0.138,0.059l-0.137,0.06l-0.137,0.061l-0.136,0.062l-0.135,0.062l-0.135,0.063l-0.134,0.064l-0.134,0.064l-0.133,0.066l-0.132,0.066l-0.132,0.066l-0.131,0.068l-0.13,0.068l-0.13,0.068l-0.13,0.07l-0.128,0.07l-0.128,0.071l-0.127,0.072l-0.127,0.072l-0.126,0.073l-0.126,0.074l-0.125,0.074l-0.124,0.075l-0.124,0.076l-0.123,0.077l-0.122,0.077l-0.122,0.078l-0.121,0.079l-0.12,0.079l-0.12,0.08l-0.119,0.081l-0.119,0.082l-0.118,0.082l-0.117,0.083l-0.117,0.084l-0.116,0.084l-0.116,0.086l-0.115,0.085l-0.114,0.087l-0.114,0.087l-0.113,0.088l-0.112,0.089l-0.112,0.089l-0.111,0.091l-0.11,0.09l-0.11,0.092l-0.109,0.092l-0.108,0.092l-0.107,0.093l-0.107,0.094l-0.105,0.094l-0.105,0.095l-0.104,0.095l-0.102,0.095l-0.103,0.097l-0.101,0.096l-0.1,0.097l-0.099,0.098l-0.099,0.098l-0.098,0.099l-0.097,0.099l-0.096,0.1l-0.095,0.1l-0.094,0.101l-0.093,0.102l-0.093,0.101l-0.092,0.103l-0.091,0.103l-0.09,0.103l-0.089,0.104l-0.088,0.104l-0.087,0.105l-0.087,0.106l-0.086,0.106l-0.084,0.107l-0.084,0.107l-0.083,0.107l-0.083,0.108l-0.081,0.109l-0.08,0.109l-0.08,0.11l-0.079,0.11l-0.078,0.111l-0.077,0.111l-0.076,0.111l-0.075,0.113l-0.075,0.112l-0.074,0.114l-0.072,0.114l-0.072,0.114l-0.071,0.115l-0.07,0.115l-0.07,0.116l-0.068,0.116l-0.068,0.117l-0.066,0.118l-0.066,0.118l-0.065,0.118l-0.064,0.119l-0.064,0.12l-0.062,0.12l-0.062,0.12l-0.06,0.122l-0.06,0.121l-0.059,0.122l-0.058,0.123l-0.058,0.123l-0.056,0.124l-0.056,0.124l-0.054,0.125l-0.054,0.125l-0.053,0.126l-0.052,0.126l-0.051,0.127l-0.051,0.127l-0.049,0.128l-0.049,0.128l-0.048,0.129l-0.047,0.13l-0.046,0.129l-0.045,0.131l-0.044,0.131l-0.044,0.131l-0.042,0.132l-0.042,0.133l-0.041,0.133l-0.04,0.133l-0.039,0.134l-0.038,0.135l-0.038,0.135l-0.037,0.136l-0.035,0.136l-0.035,0.137l-0.034,0.137l-0.033,0.138l-0.033,0.138l-0.031,0.139l-0.031,0.139l-0.029,0.14l-0.029,0.14l-0.028,0.141l-0.027,0.141l-0.026,0.142l-0.026,0.142l-0.024,0.143l-0.024,0.144l-0.023,0.144l-0.022,0.144l-0.021,0.145l-0.02,0.146l-0.02,0.146l-0.018,0.146l-0.018,0.147l-0.017,0.148l-0.015,0.148l-0.016,0.149l-0.014,0.149l-0.013,0.149l-0.013,0.151l-0.011,0.15l-0.011,0.151l-0.01,0.152l-0.009,0.152l-0.008,0.153l-0.007,0.154l-0.007,0.153l-0.005,0.155l-0.005,0.155l-0.004,0.155l-0.003,0.156l-0.002,0.156l-0.002,0.157l0,0.158l0,0.144l0.001,0.144l0.002,0.144l0.003,0.144l0.003,0.143l0.003,0.144l0.005,0.143l0.005,0.143l0.006,0.143l0.006,0.143l0.007,0.142l0.008,0.143l0.009,0.142l0.009,0.142l0.01,0.142l0.01,0.141l0.012,0.142l0.012,0.141l0.012,0.141l0.014,0.141l0.014,0.141l0.014,0.141l0.016,0.14l0.016,0.14l0.016,0.14l0.018,0.14l0.018,0.14l0.019,0.139l0.019,0.14l0.02,0.139l0.021,0.139l0.022,0.139l0.022,0.138l0.023,0.139l0.023,0.138l0.025,0.138l0.024,0.138l0.026,0.138l0.026,0.137l0.027,0.138l0.028,0.137l0.028,0.137l0.029,0.137l0.03,0.136l0.03,0.137l0.032,0.136l0.031,0.136l0.033,0.136l0.033,0.136l0.034,0.136l0.034,0.135l0.035,0.135l0.036,0.135l0.037,0.135l0.037,0.135l0.038,0.134l0.038,0.135l0.04,0.134l0.04,0.134l0.04,0.134l0.042,0.133l0.042,0.134l0.042,0.133l0.044,0.133l0.044,0.134l0.045,0.133l0.046,0.134l0.047,0.135l0.048,0.135l0.049,0.135l0.051,0.136l0.051,0.136l0.052,0.136l0.053,0.137l0.054,0.138l0.055,0.137l0.056,0.139l0.056,0.138l0.058,0.139l0.059,0.14l0.06,0.14l0.061,0.14l0.062,0.141l0.063,0.141l0.063,0.141l0.065,0.142l0.066,0.143l0.067,0.142l0.067,0.144l0.069,0.143l0.07,0.144l0.07,0.145l0.072,0.144l0.073,0.146l0.073,0.145l0.075,0.147l0.075,0.146l0.077,0.147l0.077,0.147l0.079,0.148l0.079,0.148l0.081,0.149l0.081,0.149l0.083,0.149l0.083,0.15l0.084,0.15l0.086,0.151l0.086,0.151l0.087,0.152l0.089,0.152l0.089,0.152l0.09,0.153l0.091,0.153l0.093,0.154l0.093,0.154l0.094,0.154l0.095,0.155l0.096,0.155l0.097,0.156l0.098,0.156l0.099,0.156l0.1,0.157l0.101,0.158l0.102,0.157l0.103,0.158l0.104,0.159l0.105,0.159l0.106,0.159l-0.227,0.134l-0.226,0.133l-0.224,0.134l-0.222,0.135l-0.222,0.135l-0.219,0.136l-0.218,0.135l-0.217,0.137l-0.214,0.137l-0.214,0.137l-0.212,0.138l-0.21,0.138l-0.209,0.138l-0.207,0.139l-0.205,0.14l-0.204,0.14l-0.203,0.14l-0.201,0.141l-0.199,0.141l-0.198,0.142l-0.197,0.142l-0.195,0.142l-0.193,0.144l-0.192,0.143l-0.19,0.144l-0.188,0.144l-0.188,0.145l-0.185,0.145l-0.184,0.146l-0.183,0.146l-0.181,0.147l-0.179,0.147l-0.178,0.147l-0.176,0.148l-0.175,0.149l-0.173,0.148l-0.172,0.15l-0.17,0.149l-0.168,0.151l-0.168,0.15l-0.165,0.151l-0.164,0.152l-0.162,0.152l-0.161,0.152l-0.16,0.153l-0.157,0.153l-0.157,0.154l-0.154,0.154l-0.153,0.155l-0.152,0.155l-0.15,0.155l-0.149,0.156l-0.147,0.157l-0.145,0.156l-0.144,0.158l-0.142,0.157l-0.141,0.159l-0.139,0.158l-0.138,0.159l-0.136,0.16l-0.135,0.16l-0.133,0.16l-0.131,0.161l-0.13,0.161l-0.065,0.081l-0.063,0.081l-0.064,0.082l-0.063,0.082l-0.062,0.082l-0.062,0.082l-0.061,0.083l-0.061,0.083l-0.06,0.083l-0.06,0.083l-0.059,0.084l-0.059,0.084l-0.058,0.085l-0.058,0.084l-0.058,0.085l-0.056,0.086l-0.057,0.085l-0.055,0.086l-0.056,0.086l-0.054,0.086l-0.055,0.087l-0.053,0.087l-0.054,0.087l-0.052,0.088l-0.053,0.088l-0.051,0.088l-0.052,0.088l-0.05,0.089l-0.051,0.089l-0.049,0.089l-0.05,0.09l-0.048,0.09l-0.048,0.09l-0.048,0.09l-0.047,0.091l-0.047,0.091l-0.046,0.092l-0.046,0.091l-0.045,0.092l-0.045,0.092l-0.044,0.093l-0.044,0.093l-0.043,0.093l-0.042,0.093l-0.043,0.094l-0.041,0.093l-0.041,0.095l-0.041,0.094l-0.04,0.095l-0.04,0.095l-0.039,0.095l-0.038,0.096l-0.038,0.096l-0.038,0.096l-0.037,0.097l-0.037,0.097l-0.036,0.097l-0.035,0.097l-0.036,0.098l-0.034,0.098l-0.034,0.098l-0.034,0.099l-0.033,0.099l-0.032,0.099l-0.032,0.099l-0.032,0.1l-0.031,0.1l-0.031,0.1l-0.03,0.101l-0.029,0.101l-0.029,0.101l-0.029,0.101l-0.028,0.102l-0.027,0.102l-0.027,0.102l-0.027,0.103l-0.026,0.103l-0.025,0.103l-0.025,0.104l-0.025,0.103l-0.024,0.104l-0.023,0.105l-0.023,0.104l-0.022,0.105l-0.022,0.106l-0.022,0.105l-0.021,0.106l-0.02,0.106l-0.02,0.106l-0.02,0.107l-0.019,0.107l-0.018,0.107l-0.018,0.108l-0.017,0.108l-0.017,0.108l-0.017,0.108l-0.016,0.109l-0.015,0.109l-0.015,0.109l-0.014,0.11l-0.014,0.109l-0.013,0.111l-0.013,0.11l-0.013,0.111l-0.012,0.111l-0.011,0.111l-0.011,0.112l-0.01,0.111l-0.01,0.113l-0.009,0.112l-0.009,0.113l-0.008,0.113l-0.008,0.113l-0.008,0.114l-0.006,0.114l-0.007,0.114l-0.006,0.114l-0.005,0.115l-0.005,0.115l-0.004,0.116l-0.004,0.115l-0.003,0.116l-0.003,0.116l-0.002,0.117l-0.002,0.117l-0.001,0.117l-0.001,0.117l0,0.118l0,0.116l0.001,0.115l0.001,0.116l0.002,0.115l0.002,0.115l0.003,0.115l0.003,0.114l0.004,0.115l0.004,0.114l0.004,0.114l0.006,0.114l0.005,0.113l0.006,0.114l0.007,0.113l0.007,0.113l0.008,0.113l0.008,0.112l0.008,0.113l0.009,0.112l0.01,0.112l0.01,0.112l0.01,0.111l0.012,0.112l0.011,0.111l0.012,0.111l0.013,0.111l0.012,0.11l0.014,0.111l0.014,0.11l0.014,0.11l0.015,0.11l0.016,0.109l0.016,0.11l0.016,0.109l0.017,0.109l0.017,0.109l0.018,0.108l0.019,0.109l0.018,0.108l0.02,0.108l0.02,0.108l0.02,0.107l0.021,0.108l0.021,0.107l0.022,0.107l0.022,0.107l0.023,0.106l0.023,0.107l0.024,0.106l0.024,0.106l0.025,0.106l0.025,0.105l0.026,0.106l0.026,0.105l0.027,0.105l0.027,0.105l0.028,0.104l0.028,0.105l0.029,0.104l0.029,0.104l0.029,0.104l0.03,0.103l0.031,0.104l0.031,0.103l0.032,0.103l0.032,0.102l0.032,0.103l0.034,0.102l0.033,0.103l0.034,0.102l0.035,0.101l0.035,0.102l0.035,0.101l0.036,0.102l0.037,0.101l0.037,0.1l0.037,0.101l0.038,0.1l0.039,0.1l0.039,0.1l0.039,0.1l0.04,0.1l0.04,0.099l0.041,0.099l0.042,0.099l0.042,0.099l0.042,0.099l0.043,0.098l0.043,0.098l0.044,0.098l0.044,0.098l0.045,0.098l0.045,0.097l0.046,0.097l0.047,0.097l0.046,0.097l0.048,0.096l0.047,0.097l0.049,0.096l0.048,0.096l0.05,0.096l0.049,0.095l0.051,0.096l0.05,0.095l0.051,0.095l0.052,0.095l0.052,0.094l0.053,0.094l0.053,0.095l0.054,0.094l0.054,0.093l0.055,0.094l0.055,0.093l0.055,0.093l0.056,0.093l0.057,0.093l0.057,0.093l0.058,0.092l0.058,0.092l0.058,0.092l0.059,0.092l0.06,0.092l0.06,0.091l0.06,0.091l0.061,0.091l0.062,0.091l0.062,0.09l0.062,0.091l0.063,0.09l0.063,0.09l0.064,0.089l0.064,0.089l0.064,0.089l0.065,0.089l0.065,0.088l0.066,0.088l0.066,0.088l0.066,0.087l0.066,0.087l0.067,0.087l0.068,0.086l0.067,0.087l0.068,0.085l0.069,0.086l0.069,0.085l0.069,0.085l0.07,0.085l0.069,0.084l0.071,0.084l0.07,0.084l0.072,0.083l0.071,0.083l0.072,0.083l0.072,0.083l0.072,0.082l0.073,0.082l0.074,0.081l0.073,0.082l0.074,0.08l0.075,0.081l0.075,0.081l0.075,0.08l0.075,0.079l0.076,0.08l0.076,0.079l0.077,0.079l0.077,0.078l0.077,0.079l0.078,0.078l0.078,0.077l0.079,0.077l0.078,0.078l0.08,0.076l0.079,0.077l0.08,0.076l0.081,0.076l0.08,0.075l0.081,0.075l0.082,0.075l0.082,0.075l0.082,0.074l0.082,0.074l0.083,0.074l0.084,0.073l0.083,0.073l0.084,0.073l0.085,0.072l0.085,0.072l0.085,0.072l0.085,0.072l0.086,0.071l0.086,0.071l0.087,0.071l0.087,0.07l0.087,0.07l0.088,0.07l0.088,0.069l0.089,0.069l0.089,0.069l0.089,0.069l0.09,0.068l0.09,0.068l0.09,0.067l0.091,0.067l0.091,0.067l0.091,0.067l0.092,0.067l0.092,0.066l0.093,0.065l0.093,0.066l0.093,0.065l0.094,0.065l0.094,0.064l0.094,0.065l0.095,0.064l0.095,0.063l0.096,0.063l0.096,0.063l0.096,0.063l0.097,0.063l0.097,0.062l0.097,0.062l0.196,0.122l0.197,0.122l0.199,0.12l0.201,0.119l0.202,0.118l0.203,0.116l0.205,0.116l0.206,0.114l0.208,0.113l0.209,0.112l0.211,0.11l0.212,0.11l0.214,0.108l0.215,0.106l0.217,0.106l0.218,0.105l0.22,0.103l0.11,0.051l0.111,0.051l0.11,0.05l0.111,0.05l0.112,0.049l0.111,0.049l0.112,0.049l0.112,0.048l0.224,0.096l0.225,0.094l0.227,0.092l0.227,0.09l0.228,0.089l0.229,0.088l0.229,0.086l0.231,0.084l0.232,0.082l0.232,0.081l0.233,0.08l0.235,0.077l0.235,0.076l0.236,0.075l0.237,0.073l0.237,0.071l0.239,0.07l0.24,0.068l0.24,0.067l0.241,0.065l0.243,0.063l0.243,0.062l0.244,0.06l0.245,0.058l0.246,0.057l0.246,0.056l0.248,0.053l0.248,0.052l0.25,0.051l0.25,0.049l0.251,0.047l0.252,0.046l0.253,0.044l0.254,0.042l0.255,0.041l0.255,0.04l0.257,0.037l0.257,0.036l0.258,0.035l0.26,0.033l0.26,0.031l0.261,0.03l0.261,0.028l0.263,0.026l0.264,0.025l0.264,0.023l0.266,0.022l0.266,0.02l0.267,0.018l0.268,0.017l0.269,0.015l0.27,0.014l0.271,0.012l0.271,0.01l0.273,0.009l0.273,0.007l0.275,0.006l0.275,0.004l0.276,0.003l0.277,0l0.192,0l0.191,-0.001l0.192,-0.002l0.191,-0.003l0.191,-0.004l0.19,-0.005l0.191,-0.005l0.19,-0.007l0.19,-0.007l0.19,-0.008l0.19,-0.009l0.189,-0.01l0.189,-0.01l0.189,-0.012l0.189,-0.012l0.188,-0.013l0.188,-0.014l0.188,-0.015l0.188,-0.015l0.188,-0.017l0.187,-0.017l0.187,-0.018l0.187,-0.019l0.187,-0.02l0.186,-0.021l0.187,-0.022l0.186,-0.022l0.185,-0.023l0.186,-0.024l0.185,-0.025l0.185,-0.026l0.185,-0.027l0.185,-0.027l0.185,-0.029l0.184,-0.029l0.184,-0.03l0.184,-0.031l0.183,-0.032l0.183,-0.032l0.184,-0.034l0.183,-0.034l0.182,-0.035l0.183,-0.036l0.182,-0.037l0.182,-0.037l0.182,-0.039l0.181,-0.039l0.182,-0.04l0.181,-0.042l0.181,-0.041l0.18,-0.043l0.181,-0.044l0.18,-0.044l0.18,-0.045l0.18,-0.047l0.179,-0.046l0.18,-0.048l0.179,-0.049l0.179,-0.049l0.178,-0.051l0.179,-0.051l0.178,-0.052l0.178,-0.053l0.178,-0.054l0.177,-0.054l0.178,-0.056l0.177,-0.056l0.177,-0.057l0.176,-0.058l0.177,-0.059l0.176,-0.059l0.176,-0.061l0.176,-0.061l0.175,-0.063l0.176,-0.063l0.175,-0.063l0.175,-0.065l0.174,-0.066l0.175,-0.066l0.174,-0.067l0.174,-0.069l0.174,-0.069l0.173,-0.069l0.174,-0.071l0.173,-0.071l0.173,-0.073l0.172,-0.073l0.173,-0.074l0.172,-0.075l0.172,-0.076l0.172,-0.076l0.171,-0.078l0.171,-0.078l0.172,-0.079l0.17,-0.08l0.171,-0.081l0.171,-0.082l0.17,-0.082l0.17,-0.083l0.169,-0.085l0.17,-0.085l0.169,-0.085l0.169,-0.087l0.169,-0.088l0.169,-0.088l0.168,-0.09l0.169,-0.09l0.168,-0.091l0.167,-0.091l0.168,-0.093l0.167,-0.094l0.167,-0.094l0.167,-0.095l0.167,-0.096l0.166,-0.097l0.166,-0.098l0.166,-0.098l0.166,-0.1l0.166,-0.1l0.165,-0.101l0.165,-0.102l0.165,-0.103l0.165,-0.104l0.164,-0.104l0.164,-0.105l0.164,-0.107l0.164,-0.107l0.163,-0.108l11.067,10.581l13.742,-13.256l-5.594,-5.229l-6.08,-5.594l0.136,-0.202l0.135,-0.202l0.135,-0.203l0.133,-0.203l0.133,-0.203l0.131,-0.203l0.131,-0.205l0.13,-0.204l0.128,-0.205l0.128,-0.205l0.127,-0.206l0.126,-0.206l0.125,-0.207l0.124,-0.207l0.123,-0.208l0.122,-0.207l0.121,-0.209l0.12,-0.208l0.119,-0.21l0.119,-0.209l0.117,-0.21l0.117,-0.21l0.115,-0.211l0.114,-0.211l0.114,-0.212l0.113,-0.212l0.111,-0.212l0.111,-0.213l0.11,-0.213l0.108,-0.214l0.108,-0.214l0.107,-0.215l0.106,-0.215l0.105,-0.215l0.104,-0.216l0.103,-0.216l0.102,-0.217l0.101,-0.217l0.101,-0.217l0.099,-0.218l0.098,-0.218l0.098,-0.219l0.096,-0.219l0.096,-0.219l0.094,-0.22l0.094,-0.221l0.092,-0.22l0.092,-0.221l0.091,-0.222l0.09,-0.222l0.088,-0.222l0.088,-0.223l0.087,-0.224l0.086,-0.223l0.085,-0.224l0.084,-0.225l0.083,-0.225l0.083,-0.225l0.081,-0.226l0.08,-0.226l0.08,-0.226l0.078,-0.227l0.077,-0.228l0.077,-0.228l-17.147,-12.282l-0.046,0.201l-0.047,0.2l-0.047,0.201l-0.048,0.199l-0.049,0.2l-0.049,0.199l-0.05,0.198l-0.05,0.198l-0.051,0.197l-0.052,0.197l-0.053,0.196l-0.053,0.196l-0.054,0.196l-0.054,0.195l-0.055,0.194l-0.056,0.194l-0.056,0.194l-0.057,0.193l-0.058,0.193l-0.058,0.192l-0.059,0.192l-0.06,0.191l-0.06,0.191l-0.061,0.19l-0.062,0.19l-0.062,0.189l-0.063,0.189l-0.063,0.188l-0.065,0.188l-0.065,0.187l-0.065,0.187l-0.066,0.187l-0.067,0.186l-0.068,0.185l-0.068,0.185l-0.069,0.185l-0.069,0.184l-0.07,0.184l-0.071,0.183l-0.071,0.182l-0.072,0.182l-0.073,0.182l-0.073,0.181l-0.074,0.181l-0.075,0.18l-0.075,0.18l-0.076,0.18l-0.077,0.178l-0.077,0.179l-0.078,0.178l-0.079,0.177l-0.079,0.177l-0.08,0.177l-0.08,0.176l-0.082,0.175l-0.082,0.175l-0.082,0.175l-0.083,0.174l-0.084,0.173l-0.085,0.174l-0.085,0.172l-0.085,0.173l-0.087,0.171l-0.087,0.172l-0.333,-0.334l-0.33,-0.331l-0.326,-0.328l-0.324,-0.326l-0.32,-0.324l-0.318,-0.321l-0.314,-0.319l-0.312,-0.317l-0.308,-0.314l-0.305,-0.312l-0.302,-0.31l-0.299,-0.307l-0.296,-0.304l-0.292,-0.303l-0.29,-0.3l-0.287,-0.297l-0.283,-0.296l-0.28,-0.292l-0.278,-0.291l-0.274,-0.288l-0.271,-0.286l-0.268,-0.283l-0.265,-0.281l-0.262,-0.279l-0.259,-0.276l-0.255,-0.274l-0.253,-0.271l-0.25,-0.27l-0.246,-0.266l-0.243,-0.265l-0.241,-0.262l-0.237,-0.259l0.28,-0.145l0.279,-0.145l0.276,-0.145l0.275,-0.145l0.273,-0.146l0.271,-0.147l0.269,-0.146l0.267,-0.147l0.265,-0.147l0.264,-0.148l0.262,-0.148l0.259,-0.148l0.258,-0.148l0.256,-0.149l0.254,-0.149l0.252,-0.15l0.251,-0.149l0.248,-0.151l0.247,-0.15l0.245,-0.151l0.243,-0.151l0.241,-0.151l0.239,-0.152l0.237,-0.152l0.235,-0.153l0.234,-0.152l0.232,-0.153l0.229,-0.154l0.228,-0.154l0.226,-0.154l0.224,-0.154l0.223,-0.155l0.22,-0.155l0.219,-0.155l0.216,-0.156l0.215,-0.156l0.213,-0.156l0.211,-0.157l0.21,-0.157l0.207,-0.157l0.205,-0.158l0.204,-0.158l0.202,-0.158l0.2,-0.159l0.198,-0.159l0.196,-0.159l0.194,-0.159l0.192,-0.16l0.191,-0.161l0.188,-0.16l0.187,-0.161l0.185,-0.161l0.183,-0.162l0.181,-0.162l0.18,-0.162l0.177,-0.163l0.176,-0.162l0.173,-0.164l0.172,-0.163l0.17,-0.164l0.168,-0.164l0.166,-0.165l0.165,-0.164l0.162,-0.166l0.08,-0.082l0.08,-0.084l0.079,-0.083l0.079,-0.084l0.078,-0.084l0.077,-0.085l0.077,-0.085l0.076,-0.085l0.075,-0.086l0.075,-0.086l0.074,-0.086l0.074,-0.087l0.073,-0.087l0.072,-0.087l0.071,-0.088l0.071,-0.088l0.071,-0.088l0.069,-0.089l0.07,-0.089l0.068,-0.09l0.068,-0.089l0.067,-0.091l0.067,-0.09l0.065,-0.091l0.066,-0.091l0.064,-0.092l0.064,-0.092l0.064,-0.092l0.063,-0.092l0.062,-0.093l0.061,-0.094l0.061,-0.093l0.06,-0.094l0.06,-0.095l0.059,-0.094l0.058,-0.095l0.058,-0.096l0.057,-0.095l0.057,-0.097l0.056,-0.096l0.055,-0.097l0.054,-0.097l0.054,-0.097l0.054,-0.098l0.052,-0.098l0.052,-0.099l0.052,-0.099l0.051,-0.099l0.05,-0.1l0.049,-0.1l0.049,-0.1l0.048,-0.1l0.048,-0.101l0.047,-0.102l0.046,-0.101l0.046,-0.102l0.045,-0.103l0.045,-0.103l0.044,-0.103l0.043,-0.103l0.042,-0.104l0.042,-0.104l0.042,-0.104l0.04,-0.105l0.04,-0.105l0.04,-0.106l0.039,-0.106l0.038,-0.106l0.037,-0.106l0.037,-0.107l0.037,-0.108l0.035,-0.107l0.035,-0.108l0.035,-0.108l0.033,-0.109l0.033,-0.109l0.033,-0.109l0.032,-0.11l0.031,-0.11l0.031,-0.111l0.03,-0.11l0.029,-0.111l0.029,-0.112l0.028,-0.112l0.027,-0.112l0.027,-0.112l0.026,-0.113l0.026,-0.113l0.025,-0.114l0.024,-0.114l0.024,-0.114l0.023,-0.115l0.022,-0.114l0.022,-0.116l0.021,-0.115l0.02,-0.116l0.02,-0.117l0.02,-0.116l0.018,-0.117l0.018,-0.118l0.018,-0.117l0.016,-0.119l0.016,-0.118l0.016,-0.119l0.015,-0.119l0.014,-0.119l0.013,-0.12l0.013,-0.12l0.013,-0.121l0.011,-0.121l0.011,-0.121l0.011,-0.121l0.01,-0.122l0.009,-0.123l0.008,-0.122l0.008,-0.123l0.007,-0.123l0.007,-0.124l0.006,-0.124l0.005,-0.124l0.005,-0.125l0.004,-0.125l0.004,-0.126l0.002,-0.125l0.003,-0.126l0.001,-0.127l0.001,-0.127l0,-0.127l0,-0.182l-0.003,-0.181l-0.004,-0.181l-0.006,-0.181l-0.008,-0.179l-0.009,-0.18l-0.011,-0.178l-0.013,-0.178l-0.014,-0.177l-0.016,-0.177l-0.018,-0.176l-0.019,-0.176l-0.022,-0.175l-0.022,-0.174l-0.025,-0.174l-0.026,-0.173l-0.028,-0.173l-0.03,-0.172l-0.031,-0.171l-0.033,-0.171l-0.035,-0.171l-0.036,-0.169l-0.038,-0.169l-0.04,-0.169l-0.041,-0.168l-0.044,-0.167l-0.044,-0.167l-0.047,-0.166l-0.048,-0.165l-0.05,-0.165l-0.052,-0.164l-0.053,-0.164l-0.055,-0.163l-0.057,-0.163l-0.058,-0.162l-0.06,-0.161l-0.062,-0.161l-0.063,-0.16l-0.066,-0.159l-0.066,-0.159l-0.069,-0.159l-0.07,-0.158l-0.072,-0.157l-0.074,-0.156l-0.075,-0.156l-0.077,-0.156l-0.079,-0.155l-0.08,-0.154l-0.082,-0.153l-0.084,-0.153l-0.085,-0.153l-0.088,-0.152l-0.088,-0.151l-0.091,-0.151l-0.092,-0.15l-0.094,-0.149l-0.096,-0.149l-0.097,-0.148l-0.099,-0.148l-0.101,-0.147l-0.102,-0.146l-0.104,-0.146l-0.106,-0.146l-0.107,-0.144l-0.109,-0.144l-0.111,-0.143l-0.111,-0.142l-0.113,-0.141l-0.114,-0.14l-0.115,-0.139l-0.117,-0.138l-0.118,-0.137l-0.119,-0.136l-0.12,-0.136l-0.122,-0.134l-0.123,-0.133l-0.124,-0.132l-0.126,-0.131l-0.127,-0.13l-0.128,-0.13l-0.129,-0.128l-0.131,-0.127l-0.132,-0.126l-0.133,-0.126l-0.134,-0.124l-0.136,-0.123l-0.137,-0.123l-0.139,-0.121l-0.139,-0.121l-0.141,-0.119l-0.142,-0.118l-0.144,-0.118l-0.144,-0.116l-0.146,-0.116l-0.148,-0.114l-0.148,-0.114l-0.15,-0.113l-0.151,-0.111l-0.152,-0.111l-0.154,-0.109l-0.155,-0.109l-0.156,-0.108l-0.157,-0.106l-0.159,-0.106l-0.16,-0.105l-0.162,-0.104l-0.162,-0.102l-0.164,-0.102l-0.165,-0.101l-0.166,-0.1l-0.168,-0.099l-0.169,-0.098l-0.17,-0.096l-0.172,-0.096l-0.173,-0.095l-0.174,-0.094l-0.175,-0.093l-0.177,-0.092l-0.178,-0.091l-0.179,-0.09l-0.18,-0.089l-0.182,-0.088l-0.183,-0.087l-0.184,-0.087l-0.186,-0.085l-0.187,-0.084l-0.188,-0.083l-0.189,-0.082l-0.19,-0.081l-0.192,-0.08l-0.192,-0.079l-0.193,-0.077l-0.193,-0.076l-0.195,-0.075l-0.195,-0.073l-0.197,-0.072l-0.197,-0.071l-0.198,-0.07l-0.198,-0.068l-0.2,-0.067l-0.2,-0.066l-0.202,-0.064l-0.202,-0.063l-0.203,-0.062l-0.203,-0.061l-0.205,-0.059l-0.205,-0.058l-0.207,-0.057l-0.207,-0.056l-0.208,-0.054l-0.208,-0.053l-0.21,-0.052l-0.21,-0.05l-0.211,-0.049l-0.213,-0.048l-0.212,-0.047l-0.214,-0.045l-0.215,-0.044l-0.215,-0.043l-0.216,-0.041l-0.217,-0.04l-0.218,-0.039l-0.219,-0.038l-0.219,-0.036l-0.221,-0.036l-0.221,-0.033l-0.222,-0.033l-0.223,-0.031l-0.223,-0.03l-0.225,-0.029l-0.225,-0.027l-0.227,-0.027l-0.227,-0.024l-0.227,-0.024l-0.229,-0.022l-0.23,-0.022l-0.23,-0.019l-0.231,-0.019l-0.232,-0.017l-0.233,-0.016l-0.234,-0.015l-0.234,-0.013l-0.235,-0.012l-0.237,-0.011l-0.237,-0.01l-0.237,-0.008l-0.239,-0.007l-0.24,-0.006l-0.24,-0.004l-0.241,-0.003l-0.242,-0.002l-0.243,-0.001l-0.189,0Zm-8.827,53.523l0.467,0.495l0.463,0.492l0.461,0.487l0.457,0.484l0.454,0.479l0.452,0.476l0.448,0.471l0.445,0.467l0.442,0.463l0.438,0.46l0.436,0.455l0.433,0.451l0.429,0.447l0.427,0.443l0.423,0.439l0.421,0.435l0.417,0.431l0.414,0.427l0.411,0.423l0.408,0.419l0.405,0.415l0.401,0.411l0.399,0.407l0.396,0.402l0.392,0.399l0.39,0.395l0.386,0.39l0.383,0.387l0.38,0.382l0.377,0.379l0.374,0.374l-0.114,0.057l-0.114,0.056l-0.114,0.054l-0.115,0.054l-0.114,0.053l-0.115,0.052l-0.115,0.051l-0.114,0.051l-0.115,0.049l-0.116,0.049l-0.115,0.047l-0.115,0.047l-0.116,0.046l-0.115,0.045l-0.116,0.044l-0.116,0.043l-0.116,0.043l-0.116,0.041l-0.116,0.041l-0.117,0.039l-0.116,0.039l-0.117,0.038l-0.116,0.037l-0.117,0.036l-0.117,0.035l-0.117,0.034l-0.117,0.034l-0.117,0.032l-0.118,0.032l-0.117,0.031l-0.118,0.029l-0.118,0.029l-0.118,0.028l-0.118,0.028l-0.118,0.026l-0.118,0.025l-0.118,0.025l-0.119,0.023l-0.118,0.023l-0.119,0.022l-0.119,0.021l-0.119,0.02l-0.119,0.019l-0.119,0.018l-0.119,0.018l-0.12,0.016l-0.119,0.016l-0.12,0.014l-0.12,0.014l-0.12,0.013l-0.12,0.012l-0.12,0.011l-0.12,0.011l-0.12,0.009l-0.121,0.008l-0.12,0.008l-0.121,0.007l-0.121,0.005l-0.121,0.005l-0.121,0.004l-0.121,0.003l-0.122,0.003l-0.121,0.001l-0.122,0l-0.136,0l-0.136,-0.002l-0.134,-0.003l-0.134,-0.004l-0.134,-0.005l-0.132,-0.006l-0.132,-0.008l-0.13,-0.009l-0.13,-0.009l-0.13,-0.011l-0.128,-0.013l-0.128,-0.013l-0.126,-0.014l-0.126,-0.016l-0.126,-0.017l-0.124,-0.018l-0.123,-0.019l-0.123,-0.02l-0.122,-0.022l-0.121,-0.022l-0.121,-0.024l-0.119,-0.025l-0.119,-0.026l-0.118,-0.027l-0.117,-0.028l-0.117,-0.03l-0.115,-0.031l-0.115,-0.031l-0.114,-0.033l-0.113,-0.035l-0.113,-0.035l-0.111,-0.036l-0.111,-0.038l-0.11,-0.039l-0.109,-0.04l-0.108,-0.041l-0.108,-0.042l-0.107,-0.044l-0.106,-0.044l-0.105,-0.046l-0.104,-0.047l-0.104,-0.048l-0.102,-0.049l-0.102,-0.05l-0.101,-0.052l-0.101,-0.053l-0.099,-0.053l-0.099,-0.055l-0.098,-0.057l-0.097,-0.057l-0.096,-0.058l-0.096,-0.06l-0.095,-0.061l-0.094,-0.062l-0.093,-0.063l-0.092,-0.064l-0.092,-0.066l-0.09,-0.066l-0.09,-0.068l-0.089,-0.069l-0.089,-0.07l-0.087,-0.071l-0.087,-0.072l-0.086,-0.074l-0.085,-0.074l-0.083,-0.076l-0.082,-0.076l-0.081,-0.077l-0.08,-0.078l-0.078,-0.078l-0.077,-0.079l-0.075,-0.08l-0.074,-0.081l-0.073,-0.082l-0.072,-0.083l-0.07,-0.083l-0.069,-0.084l-0.067,-0.085l-0.066,-0.086l-0.065,-0.086l-0.063,-0.088l-0.063,-0.088l-0.06,-0.089l-0.06,-0.089l-0.058,-0.091l-0.057,-0.091l-0.055,-0.092l-0.054,-0.093l-0.053,-0.094l-0.051,-0.095l-0.051,-0.095l-0.048,-0.096l-0.048,-0.097l-0.046,-0.098l-0.045,-0.098l-0.043,-0.1l-0.042,-0.1l-0.041,-0.101l-0.039,-0.102l-0.038,-0.102l-0.037,-0.104l-0.035,-0.104l-0.035,-0.105l-0.032,-0.106l-0.032,-0.106l-0.03,-0.108l-0.028,-0.108l-0.028,-0.109l-0.026,-0.109l-0.025,-0.111l-0.023,-0.111l-0.022,-0.113l-0.021,-0.113l-0.019,-0.113l-0.018,-0.115l-0.017,-0.115l-0.015,-0.117l-0.014,-0.117l-0.013,-0.117l-0.011,-0.119l-0.01,-0.119l-0.009,-0.121l-0.007,-0.121l-0.006,-0.121l-0.005,-0.123l-0.003,-0.123l-0.002,-0.125l-0.001,-0.125l0,-0.058l0.001,-0.059l0.001,-0.059l0.002,-0.059l0.002,-0.058l0.002,-0.059l0.004,-0.058l0.003,-0.059l0.004,-0.058l0.005,-0.059l0.005,-0.058l0.005,-0.058l0.006,-0.058l0.006,-0.058l0.007,-0.059l0.008,-0.057l0.008,-0.058l0.008,-0.058l0.009,-0.058l0.009,-0.058l0.01,-0.058l0.01,-0.057l0.011,-0.058l0.011,-0.057l0.011,-0.058l0.012,-0.057l0.013,-0.057l0.013,-0.058l0.014,-0.057l0.014,-0.057l0.014,-0.057l0.015,-0.057l0.016,-0.057l0.016,-0.057l0.016,-0.057l0.017,-0.057l0.017,-0.056l0.018,-0.057l0.018,-0.057l0.019,-0.056l0.019,-0.057l0.02,-0.056l0.02,-0.057l0.021,-0.056l0.021,-0.056l0.022,-0.056l0.022,-0.057l0.022,-0.056l0.023,-0.056l0.024,-0.056l0.024,-0.056l0.024,-0.055l0.025,-0.056l0.026,-0.056l0.052,-0.111l0.054,-0.111l0.056,-0.111l0.058,-0.111l0.06,-0.11l0.062,-0.11l0.063,-0.11l0.066,-0.11l0.067,-0.109l0.07,-0.109l0.071,-0.109l0.073,-0.109l0.075,-0.108l0.077,-0.108l0.079,-0.108l0.081,-0.108l0.082,-0.107l0.085,-0.108l0.086,-0.107l0.089,-0.106l0.09,-0.107l0.092,-0.106l0.094,-0.106l0.096,-0.106l0.098,-0.106l0.1,-0.105l0.101,-0.105l0.104,-0.105l0.105,-0.105l0.108,-0.104l0.109,-0.104l0.111,-0.104l0.113,-0.104l0.115,-0.103l0.117,-0.103l0.119,-0.103l0.121,-0.103l0.469,0.5Zm9.335,-38.443l0.076,0.001l0.074,0.002l0.075,0.003l0.074,0.003l0.073,0.004l0.073,0.005l0.072,0.006l0.072,0.006l0.072,0.007l0.071,0.008l0.07,0.008l0.07,0.01l0.07,0.01l0.069,0.01l0.069,0.012l0.068,0.012l0.068,0.013l0.067,0.014l0.067,0.014l0.066,0.016l0.066,0.016l0.065,0.016l0.065,0.018l0.064,0.018l0.064,0.019l0.064,0.02l0.062,0.02l0.063,0.021l0.062,0.022l0.061,0.023l0.061,0.023l0.061,0.024l0.06,0.025l0.06,0.026l0.059,0.026l0.059,0.027l0.058,0.028l0.057,0.028l0.058,0.03l0.056,0.03l0.057,0.031l0.056,0.031l0.055,0.032l0.055,0.033l0.054,0.034l0.054,0.035l0.054,0.035l0.053,0.036l0.052,0.037l0.052,0.037l0.052,0.038l0.051,0.039l0.05,0.04l0.05,0.041l0.05,0.041l0.049,0.042l0.049,0.042l0.048,0.044l0.048,0.044l0.047,0.045l0.047,0.046l0.046,0.046l0.046,0.047l0.045,0.048l0.045,0.048l0.044,0.049l0.043,0.049l0.042,0.049l0.042,0.05l0.041,0.051l0.04,0.05l0.04,0.052l0.038,0.051l0.039,0.053l0.037,0.052l0.037,0.053l0.036,0.054l0.035,0.054l0.035,0.054l0.033,0.055l0.033,0.055l0.033,0.056l0.032,0.056l0.031,0.057l0.03,0.057l0.029,0.058l0.029,0.057l0.028,0.059l0.028,0.059l0.027,0.059l0.026,0.06l0.025,0.06l0.025,0.061l0.023,0.061l0.024,0.061l0.022,0.062l0.022,0.063l0.021,0.063l0.02,0.063l0.02,0.064l0.019,0.064l0.018,0.064l0.017,0.066l0.017,0.065l0.016,0.066l0.015,0.067l0.015,0.066l0.014,0.068l0.013,0.068l0.012,0.068l0.012,0.068l0.011,0.069l0.011,0.07l0.009,0.07l0.009,0.07l0.008,0.071l0.008,0.072l0.007,0.071l0.006,0.073l0.005,0.072l0.005,0.073l0.003,0.074l0.004,0.074l0.002,0.074l0.002,0.075l0.001,0.076l0,0.075l0,0.095l-0.002,0.095l-0.002,0.094l-0.004,0.094l-0.004,0.094l-0.006,0.094l-0.006,0.093l-0.008,0.093l-0.008,0.093l-0.01,0.092l-0.011,0.092l-0.011,0.092l-0.013,0.092l-0.014,0.091l-0.014,0.092l-0.016,0.09l-0.016,0.091l-0.018,0.09l-0.019,0.09l-0.019,0.09l-0.021,0.09l-0.022,0.089l-0.023,0.089l-0.023,0.089l-0.025,0.088l-0.026,0.088l-0.027,0.088l-0.027,0.088l-0.029,0.087l-0.03,0.088l-0.031,0.086l-0.031,0.087l-0.033,0.086l-0.034,0.086l-0.035,0.086l-0.036,0.086l-0.037,0.085l-0.037,0.085l-0.039,0.085l-0.04,0.084l-0.041,0.084l-0.042,0.084l-0.043,0.084l-0.044,0.083l-0.045,0.083l-0.046,0.083l-0.047,0.083l-0.048,0.082l-0.048,0.082l-0.05,0.082l-0.051,0.081l-0.052,0.082l-0.053,0.081l-0.054,0.08l-0.055,0.081l-0.056,0.08l-0.057,0.08l-0.059,0.08l-0.059,0.079l-0.06,0.079l-0.061,0.079l-0.062,0.078l-0.063,0.079l-0.064,0.078l-0.065,0.078l-0.066,0.077l-0.067,0.078l-0.067,0.078l-0.068,0.077l-0.07,0.078l-0.07,0.077l-0.07,0.077l-0.072,0.077l-0.073,0.077l-0.073,0.077l-0.074,0.077l-0.075,0.077l-0.076,0.077l-0.077,0.076l-0.077,0.077l-0.078,0.076l-0.08,0.077l-0.08,0.076l-0.08,0.076l-0.082,0.076l-0.083,0.076l-0.083,0.076l-0.084,0.076l-0.085,0.076l-0.086,0.075l-0.086,0.076l-0.088,0.075l-0.088,0.076l-0.089,0.075l-0.09,0.075l-0.091,0.075l-0.092,0.075l-0.092,0.075l-0.093,0.075l-0.095,0.075l-0.094,0.074l-0.096,0.075l-0.097,0.075l-0.097,0.074l-0.099,0.074l-0.099,0.074l-0.1,0.075l-0.1,0.074l-0.102,0.074l-0.102,0.073l-0.104,0.074l-0.104,0.074l-0.105,0.073l-0.105,0.074l-0.107,0.073l-0.107,0.074l-0.109,0.073l-0.109,0.073l-0.11,0.073l-0.11,0.073l-0.112,0.073l-0.112,0.073l-0.114,0.072l-0.114,0.073l-0.115,0.072l-0.115,0.073l-0.117,0.072l-0.117,0.073l-0.087,-0.149l-0.085,-0.148l-0.084,-0.148l-0.083,-0.147l-0.081,-0.148l-0.08,-0.148l-0.079,-0.147l-0.077,-0.147l-0.076,-0.148l-0.074,-0.147l-0.073,-0.147l-0.072,-0.147l-0.07,-0.146l-0.069,-0.147l-0.068,-0.146l-0.066,-0.147l-0.065,-0.146l-0.063,-0.146l-0.063,-0.146l-0.06,-0.146l-0.06,-0.146l-0.058,-0.145l-0.057,-0.146l-0.055,-0.145l-0.054,-0.146l-0.052,-0.145l-0.052,-0.145l-0.049,-0.145l-0.049,-0.145l-0.047,-0.144l-0.046,-0.145l-0.044,-0.145l-0.043,-0.144l-0.042,-0.144l-0.04,-0.144l-0.039,-0.144l-0.038,-0.144l-0.036,-0.144l-0.035,-0.144l-0.033,-0.143l-0.032,-0.143l-0.031,-0.144l-0.029,-0.143l-0.028,-0.143l-0.027,-0.143l-0.025,-0.143l-0.024,-0.142l-0.023,-0.143l-0.021,-0.142l-0.02,-0.143l-0.018,-0.142l-0.017,-0.142l-0.016,-0.142l-0.014,-0.142l-0.013,-0.142l-0.012,-0.141l-0.01,-0.142l-0.009,-0.141l-0.007,-0.141l-0.007,-0.142l-0.004,-0.141l-0.004,-0.141l-0.002,-0.14l0,-0.141l0,-0.091l0.001,-0.09l0.002,-0.09l0.002,-0.09l0.003,-0.088l0.004,-0.089l0.004,-0.087l0.005,-0.088l0.006,-0.086l0.007,-0.086l0.007,-0.086l0.008,-0.085l0.008,-0.085l0.009,-0.084l0.01,-0.083l0.011,-0.083l0.011,-0.082l0.012,-0.082l0.013,-0.082l0.013,-0.08l0.014,-0.081l0.015,-0.079l0.015,-0.079l0.016,-0.079l0.017,-0.078l0.017,-0.078l0.018,-0.077l0.019,-0.076l0.02,-0.076l0.02,-0.076l0.021,-0.075l0.021,-0.074l0.022,-0.074l0.023,-0.073l0.024,-0.073l0.024,-0.072l0.025,-0.072l0.026,-0.071l0.026,-0.071l0.027,-0.07l0.028,-0.069l0.028,-0.069l0.029,-0.069l0.03,-0.068l0.03,-0.067l0.031,-0.067l0.032,-0.067l0.032,-0.065l0.033,-0.066l0.034,-0.064l0.035,-0.065l0.035,-0.063l0.036,-0.063l0.036,-0.063l0.037,-0.062l0.038,-0.062l0.039,-0.061l0.039,-0.06l0.04,-0.06l0.041,-0.06l0.041,-0.058l0.042,-0.059l0.043,-0.058l0.043,-0.057l0.044,-0.056l0.045,-0.056l0.045,-0.055l0.045,-0.054l0.047,-0.053l0.046,-0.052l0.048,-0.051l0.048,-0.05l0.048,-0.05l0.049,-0.048l0.05,-0.048l0.05,-0.047l0.051,-0.046l0.051,-0.045l0.052,-0.044l0.053,-0.043l0.053,-0.042l0.053,-0.042l0.054,-0.04l0.055,-0.04l0.055,-0.039l0.056,-0.037l0.056,-0.037l0.057,-0.036l0.058,-0.036l0.058,-0.034l0.059,-0.033l0.059,-0.033l0.06,-0.031l0.06,-0.031l0.061,-0.03l0.061,-0.029l0.062,-0.028l0.063,-0.027l0.063,-0.027l0.064,-0.025l0.064,-0.024l0.065,-0.024l0.066,-0.023l0.066,-0.022l0.066,-0.02l0.067,-0.02l0.068,-0.02l0.068,-0.018l0.069,-0.017l0.069,-0.017l0.07,-0.015l0.071,-0.015l0.071,-0.014l0.071,-0.013l0.073,-0.012l0.072,-0.011l0.074,-0.01l0.074,-0.01l0.074,-0.008l0.075,-0.008l0.076,-0.006l0.076,-0.006l0.076,-0.005l0.078,-0.004l0.078,-0.003l0.078,-0.002l0.079,-0.002l0.079,0l0.076,0Z" style="fill:#fff;"/></g><rect x="570.48" y="155.989" width="9.914" height="8.332" style="fill:#fff;"/></g></g><g><path d="M1265.56,82.067c2.124,-2.012 4.501,-0.99 4.501,1.937l0,57.379l27.512,0l0,-57.713c0,-3.557 5.335,-3.557 5.335,0l0,60.381c0,1.418 -1.249,2.666 -2.669,2.666l-32.845,0c-1.419,0 -2.669,-1.248 -2.669,-2.666l0.004,-53.614l-15.213,14.743c-2.516,2.512 -6.286,-1.26 -3.773,-3.776l19.769,-19.29l0.048,-0.047Z" style="fill:#a5d223;"/><path d="M1348.98,85.695l-31.388,29.792l31.008,26.535c2.702,2.314 -0.767,6.367 -3.469,4.056l-33.255,-28.459c-1.233,-1.057 -1.279,-2.845 -0.103,-3.962l33.534,-31.829c2.578,-2.45 6.253,1.417 3.673,3.867Z" style="fill:#64bec8;"/><path d="M1115.23,81.332l45.512,0c1.056,0 1.96,0.614 2.39,1.503l23.998,58.548l19.012,0l0,-57.382c0,-2.972 2.451,-3.989 4.554,-1.887l28.036,28.022c2.515,2.516 -1.256,6.289 -3.771,3.774l-23.484,-23.473l0,53.614c0,1.418 -1.247,2.666 -2.668,2.666l-23.471,0c-1.063,0 -1.976,-0.62 -2.399,-1.52l-23.988,-58.528l-43.721,0c-3.558,0 -3.558,-5.337 0,-5.337Z" style="fill:#fa7d28;"/><path d="M1062.2,81.332l37.876,0c1.419,0 2.666,1.249 2.666,2.669l0,57.382l31.617,0l8.478,-20.699c0.354,-1.055 1.359,-1.82 2.535,-1.82l14.357,0c3.558,0 3.558,5.335 0,5.335l-12.566,0l-8.546,20.863c-0.399,0.97 -1.354,1.655 -2.468,1.655l-36.073,0c-1.419,0 -2.668,-1.248 -2.668,-2.666l0,-57.382l-35.208,0c-3.557,0 -3.557,-5.337 0,-5.337Z" style="fill:#f0147d;"/></g></g></svg>