<svg xmlns="http://www.w3.org/2000/svg" width="24" height="24" viewBox="0 0 24 24">
  <g fill="none" fill-rule="evenodd">
    <path stroke="currentColor" stroke-width="2" d="M5.1277704,5 C3.65310186,5 3.09403919,5.10795998 2.51790745,5.41607861 C2.04032407,5.67149299 1.67149299,6.04032407 1.41607861,6.51790745 C1.10795998,7.09403919 1,7.65310186 1,9.1277704 L1,14.8722296 C1,16.3468981 1.10795998,16.9059608 1.41607861,17.4820925 C1.67149299,17.9596759 2.04032407,18.328507 2.51790745,18.5839214 C3.09403919,18.89204 3.65310186,19 5.1277704,19 L18.8722296,19 C20.3468981,19 20.9059608,18.89204 21.4820925,18.5839214 C21.9596759,18.328507 22.328507,17.9596759 22.5839214,17.4820925 C22.89204,16.9059608 23,16.3468981 23,14.8722296 L23,9.1277704 C23,7.65310186 22.89204,7.09403919 22.5839214,6.51790745 C22.328507,6.04032407 21.9596759,5.67149299 21.4820925,5.41607861 C20.9059608,5.10795998 20.3468981,5 18.8722296,5 L5.1277704,5 Z"/>
    <polygon fill="currentColor" points="12.5 9 16 15 9 15" transform="rotate(90 12.5 12)"/>
  </g>
</svg>
